<?xml version="1.0" encoding="utf-8"?><svg xmlns="http://www.w3.org/2000/svg" xmlns:xlink="http://www.w3.org/1999/xlink"><symbol viewBox="0 0 172.98 160.58" id="ico-puddle-big" xmlns="http://www.w3.org/2000/svg"><path d="M173 61c0-18-12.53-38.54-32.37-52.19C131.34 2.43 121.2-2 113 .9 92.38 8.16 48.61 33.05 46.79 74.42s-32.85 18-41.69 25.67-10.56 48.45 31.72 53.34 79.52 20.52 86.79-19.34 24.2-37.51 41.23-51.94C171 76.91 173 69 173 61z" opacity=".51"/></symbol><symbol viewBox="0 0 90.22 91.3" id="ico-puddle-small" xmlns="http://www.w3.org/2000/svg"><path d="M7.78 73.84s-18.36-23.29 1.33-40.71S22.36 28 39.59 26.51s19.69-3.79 26.51-14.77S90.22 0 90.22 0v73.84c-30.11 19.59-58.54 26.69-82.44 0z" opacity=".51"/></symbol></svg>