<?xml version="1.0" encoding="utf-8"?><svg xmlns="http://www.w3.org/2000/svg" xmlns:xlink="http://www.w3.org/1999/xlink"><symbol id="ico-puddles" xml:space="preserve" viewBox="0 0 173.62 219.24" xmlns="http://www.w3.org/2000/svg"><style>.ast3{opacity:.51;fill:#d6dde1}</style><path class="ast3" d="M6.164 0c-.555 1.747-1.44 3.818-2.736 6.35-9.931 19.389 3.236 31.129 20.061 16.274C34.854 12.589 31.637 7.245 28.789 0H6.164zm160.949 37.129a98.905 98.905 0 0 0-4.014-2.913c-10.389-7.148-21.752-12.091-30.908-8.87-23.13 8.135-72.166 36.028-74.212 82.369-2.045 46.34-36.802 20.217-46.705 28.766-9.903 8.548-11.83 54.279 35.536 59.764 47.366 5.485 89.093 22.99 97.237-21.668 4.733-25.956 13.123-35.938 23.065-42.922V37.129z"/></symbol><symbol id="ico-sheets" xml:space="preserve" viewBox="0 0 140.13 114.61" xmlns="http://www.w3.org/2000/svg"><style>.bst3{fill:#d6dde1}.bst5{fill:#fff}.bst7{opacity:.51;fill:#d6dde1}</style><path class="bst3" d="M110.427 36.625l-.466-13.936c5.047 1.893 10.363 5.292 11.176 11.084l-.032 16.116c-.278-3.528-3.387-10.292-10.678-13.264z"/><path d="M113.205 34.86l-.338-6.931c3.665 1.374 7.525 5.581 8.114 9.787l-.023 6.775c-.203-2.562-2.398-6.542-7.753-9.631z" fill="#8492fb"/><path class="bst5" d="M106.178 45.942l.116 16.295c7.447-1.061 13.44-2.756 15.101-10.632l-.258-17.631c-.776 7.017-5.887 11.218-14.959 11.968z"/><path d="M109.815 49.015l.058 8.796c3.2-.372 7.947-2.628 9.362-6.672l-.129-6.885c-2.35 2.806-5.559 3.855-9.291 4.761z" fill="#ff715c"/><path class="bst5" d="M84.448 88.58l.266 26.034c27.227 0 49.145-3.824 55.316-16.406l-.007-31.935c-2.884 11.209-21.871 21.109-55.575 22.307z"/><path class="bst3" d="M.335 87.715c.471-6.068 1.283-12.019 5.903-16.661V46.943C2.281 53.08-.097 60.137.003 68.636l.332 19.079z"/><path class="bst5" d="M25.717 110.42C12.86 106.516 1.642 98.245.301 87.588L.003 67.674c1.118 9.779 10.433 19.997 25.45 25.102l.264 17.644z"/><path class="bst7" d="M12.86 100.634c-3.757-1.896-8.253-6.278-10.13-12.086l-.119-7.643c2.712 5.55 6.075 8.004 10.143 10.389l.106 9.34z"/><path class="bst3" d="M63.376 5.638c-4.051-.114-7.637 1.194-11.09 2.904l-.043-5.638C56.259 1.17 60.025.035 63.333 0l.043 5.638z"/><path class="bst7" d="M124.717 106.33V86.023c-.82.291-1.665.568-2.534.83v20.252a65.775 65.775 0 0 0 2.534-.775zm-4.819 1.33V87.894a72.97 72.97 0 0 1-2.534.612v19.729c.864-.183 1.71-.374 2.534-.575zm-4.754 1.163V89.358c-.829.162-1.675.314-2.534.458v19.45c.86-.139 1.705-.288 2.534-.443zm-4.819.888V90.373c-.832.121-1.677.234-2.534.34v19.334c.857-.105 1.703-.217 2.534-.336zm-5.204.542V91.217c-.835.086-1.679.166-2.534.24v19.038c.855-.074 1.7-.155 2.534-.242zm-4.819.619V91.939c-.836.06-1.681.114-2.534.163v18.937c.854-.05 1.699-.106 2.534-.167zm-5.011.298V92.384c-.838.037-1.683.07-2.534.098v18.788c.853-.028 1.697-.061 2.534-.1zm-4.819.214V92.316c-.839.019-1.684.034-2.534.045v19.064c.852-.009 1.697-.022 2.534-.041zm41.822-28.636l.138 3.329-3.659.495c.303 2.503 4.209 3.741 5.942 1.733 2.228-2.559.165-5.75-2.421-5.557zm0 11.551l.138 3.329-3.659.495c.303 2.503 4.209 3.741 5.942 1.733 2.228-2.559.165-5.75-2.421-5.557zM18.79 96.124l.138 3.329-3.659.495c.303 2.503 4.209 3.741 5.942 1.733 2.229-2.559.165-5.75-2.421-5.557z"/></symbol></svg>