<?xml version="1.0" encoding="utf-8"?>
<!-- Generator: Adobe Illustrator 23.0.0, SVG Export Plug-In . SVG Version: 6.00 Build 0)  -->
<svg version="1.1" id="Слой_1" xmlns="http://www.w3.org/2000/svg" xmlns:xlink="http://www.w3.org/1999/xlink" x="0px" y="0px"
	 width="140.03px" height="114.613px" viewBox="0 0 140.03 114.613" style="enable-background:new 0 0 140.03 114.613;"
	 xml:space="preserve">
<style type="text/css">
	.st0{display:none;}
	.st1{display:inline;}
	.st2{display:inline;fill:#F3F4F7;}
	.st3{fill:#D6DDE1;}
	.st4{fill:#8492FB;}
	.st5{fill:#FFFFFF;}
	.st6{fill:#FF715C;}
	.st7{opacity:0.51;fill:#D6DDE1;}
</style>
<g class="st0">
	<g id="_x38_5946s.tif" class="st1">
		
			<image style="overflow:visible;" width="3878" height="1990" id="Layer_0_1_" xlink:href="B8CA5A4F5DDF2EB3.png"  transform="matrix(0.25 0 0 0.25 -408.1949 67.5896)">
		</image>
	</g>
	<rect x="38.174" y="66.807" class="st2" width="524.971" height="498.283"/>
</g>
<g>
	<path class="st3" d="M110.427,36.625l-0.466-13.936c5.047,1.893,10.363,5.292,11.176,11.084l-0.032,16.116
		C120.827,46.361,117.718,39.597,110.427,36.625z"/>
	<path class="st4" d="M113.205,34.86l-0.338-6.931c3.665,1.374,7.525,5.581,8.114,9.787l-0.023,6.775
		C120.755,41.929,118.56,37.949,113.205,34.86z"/>
	<path class="st5" d="M106.178,45.942l0.116,16.295c7.447-1.061,13.44-2.756,15.101-10.632l-0.258-17.631
		C120.361,40.991,115.25,45.192,106.178,45.942z"/>
	<path class="st6" d="M109.815,49.015l0.058,8.796c3.2-0.372,7.947-2.628,9.362-6.672l-0.129-6.885
		C116.756,47.06,113.547,48.109,109.815,49.015z"/>
	<path class="st5" d="M84.448,88.58l0.266,26.034c27.227,0,49.145-3.824,55.316-16.406l-0.007-31.935
		C137.139,77.482,118.152,87.382,84.448,88.58z"/>
	<path class="st3" d="M0.335,87.715L0.335,87.715c0.471-6.068,1.283-12.019,5.903-16.661V46.943
		C2.281,53.08-0.097,60.137,0.003,68.636L0.335,87.715z"/>
	<path class="st5" d="M25.717,110.42C12.86,106.516,1.642,98.245,0.301,87.588L0.003,67.674c1.118,9.779,10.433,19.997,25.45,25.102
		L25.717,110.42z"/>
	<path class="st7" d="M12.86,100.634c-3.757-1.896-8.253-6.278-10.13-12.086l-0.119-7.643c2.712,5.55,6.075,8.004,10.143,10.389
		L12.86,100.634z"/>
	<path class="st3" d="M63.376,5.638c-4.051-0.114-7.637,1.194-11.09,2.904l-0.043-5.638C56.259,1.17,60.025,0.035,63.333,0
		L63.376,5.638z"/>
	<path class="st7" d="M124.717,106.33V86.023c-0.82,0.291-1.665,0.568-2.534,0.83v20.252
		C123.054,106.857,123.899,106.599,124.717,106.33z"/>
	<path class="st7" d="M119.898,107.66V87.894c-0.826,0.216-1.671,0.419-2.534,0.612v19.729
		C118.228,108.052,119.074,107.861,119.898,107.66z"/>
	<path class="st7" d="M115.144,108.823V89.358c-0.829,0.162-1.675,0.314-2.534,0.458v19.45
		C113.47,109.127,114.315,108.978,115.144,108.823z"/>
	<path class="st7" d="M110.325,109.711V90.373c-0.832,0.121-1.677,0.234-2.534,0.34v19.334
		C108.648,109.942,109.494,109.83,110.325,109.711z"/>
	<path class="st7" d="M105.121,110.253V91.217c-0.835,0.086-1.679,0.166-2.534,0.24v19.038
		C103.442,110.421,104.287,110.34,105.121,110.253z"/>
	<path class="st7" d="M100.302,110.872V91.939c-0.836,0.06-1.681,0.114-2.534,0.163v18.937
		C98.622,110.989,99.467,110.933,100.302,110.872z"/>
	<path class="st7" d="M95.291,111.17V92.384c-0.838,0.037-1.683,0.07-2.534,0.098v18.788
		C93.61,111.242,94.454,111.209,95.291,111.17z"/>
	<path class="st7" d="M90.472,111.384V92.316c-0.839,0.019-1.684,0.034-2.534,0.045v19.064
		C88.79,111.416,89.635,111.403,90.472,111.384z"/>
	<path class="st7" d="M132.294,82.748l0.138,3.329l-3.659,0.495c0.303,2.503,4.209,3.741,5.942,1.733
		C136.943,85.746,134.88,82.555,132.294,82.748z"/>
	<path class="st7" d="M132.294,94.299l0.138,3.329l-3.659,0.495c0.303,2.503,4.209,3.741,5.942,1.733
		C136.943,97.297,134.88,94.106,132.294,94.299z"/>
	<path class="st7" d="M18.79,96.124l0.138,3.329l-3.659,0.495c0.303,2.503,4.209,3.741,5.942,1.733
		C23.44,99.122,21.376,95.931,18.79,96.124z"/>
</g>
</svg>
