<?xml version="1.0" encoding="utf-8"?>
<!-- Generator: Adobe Illustrator 23.0.0, SVG Export Plug-In . SVG Version: 6.00 Build 0)  -->
<svg version="1.1" id="Слой_1" xmlns="http://www.w3.org/2000/svg" xmlns:xlink="http://www.w3.org/1999/xlink" x="0px" y="0px"
	 width="167.113px" height="204.246px" viewBox="0 0 167.113 204.246" style="enable-background:new 0 0 167.113 204.246;"
	 xml:space="preserve">
<style type="text/css">
	.st0{display:none;}
	.st1{display:inline;}
	.st2{display:inline;fill:#F3F4F7;}
	.st3{opacity:0.51;fill:#D6DDE1;}
</style>
<g class="st0">
	<g id="_x38_5946s.tif" class="st1">
		
			<image style="overflow:visible;" width="3878" height="1990" id="Layer_0_1_" xlink:href="58574F0D181FA3B0.png"  transform="matrix(0.25 0 0 0.25 -233.6527 186.4866)">
		</image>
	</g>
	<rect x="212.716" y="185.704" class="st2" width="524.971" height="498.283"/>
</g>
<g>
	<path class="st3" d="M6.164,0c-0.555,1.747-1.44,3.818-2.736,6.35c-9.931,19.389,3.236,31.129,20.061,16.274
		C34.854,12.589,31.637,7.245,28.789,0H6.164z"/>
	<path class="st3" d="M167.113,37.129c-1.306-0.998-2.644-1.971-4.014-2.913c-10.389-7.148-21.752-12.091-30.908-8.87
		c-23.13,8.135-72.166,36.028-74.212,82.369c-2.045,46.34-36.802,20.217-46.705,28.766c-9.903,8.548-11.83,54.279,35.536,59.764
		c47.366,5.485,89.093,22.99,97.237-21.668c4.733-25.956,13.123-35.938,23.065-42.922V37.129z"/>
</g>
</svg>
