<svg xmlns="http://www.w3.org/2000/svg" viewBox="0 0 1901.38 3840">
  <defs>
    <style>
      .cls-1 {
        fill: #ecc3b3;
      }

      .cls-2 {
        fill: #d6dde1;
      }

      .cls-3 {
        fill: none;
      }
    </style>
  </defs>
  <g>
    <path class="cls-2" d="M1900.44,1808.8c-2.29-.4-231.72-41.77-472.34-129.73-141.35-51.67-258.85-109.07-349.24-170.62-113.1-77-183.86-160.75-210.31-248.93-70.91-236.3,128.27-308.37,288.32-366.28,54.36-19.66,105.7-38.24,138.63-61,81.06-55.91,98.91-155.67,80.65-229.74-8.37-33.92-24.14-63.64-45.63-86-23.07-24-52.38-38.69-84.77-42.6-88.37-10.69-151.18,58.95-151.8,59.66l-1.46-1.3c.63-.71,64.12-71.11,153.5-60.3,32.83,4,62.55,18.9,85.93,43.19,21.73,22.56,37.68,52.59,46.12,86.85,18.43,74.71.39,175.36-81.43,231.81-33.14,22.86-84.6,41.48-139.07,61.19C998.26,952.7,800,1024.42,870.41,1259c26.33,87.74,96.83,171.14,209.54,247.87,90.25,61.45,207.61,118.78,348.8,170.4,240.46,87.9,469.75,129.24,472,129.65Z" transform="translate(-0.5 -0.5)"/>
    <path class="cls-2" d="M1228.83,3433.41C1162.3,3333,1114.5,3228.8,1086.76,3123.56c-47.08-178.66-36.15-355.46,32.5-525.47,36.74-91,100.77-168.75,190.31-231.1,71.59-49.85,159.56-90,261.46-119.39,173.46-50,329.28-51.34,330.84-51.35v1.95c-1.56,0-157.15,1.35-330.35,51.28-101.69,29.32-189.46,69.4-260.87,119.13-89.21,62.12-153,139.58-189.59,230.21-68.49,169.62-79.4,346-32.42,524.24,27.68,105,75.39,209.08,141.81,309.27Z" transform="translate(-0.5 -0.5)"/>
    <rect class="cls-3" width="1900.29" height="3840"/>
  </g>
</svg>
