<svg id="Слой_1" data-name="Слой 1" xmlns="http://www.w3.org/2000/svg" viewBox="0 0 152.88 432.13">
  <defs>
    <style>
      .cls-1 {
        fill: #d6dde1;
      }
    </style>
  </defs>
  <title>сюжет</title>
  <g>
    <path class="cls-1" d="M152.67,195.15a466.26,466.26,0,0,1-68.9-18.92C63.15,168.69,46,160.32,32.83,151.34,16.33,140.11,6,127.89,2.15,115c-10.34-34.47,18.71-45,42.06-53.43,7.93-2.86,15.42-5.57,20.22-8.89C76.25,44.56,78.86,30,76.19,19.2A27.53,27.53,0,0,0,69.54,6.66,20.44,20.44,0,0,0,57.17.45C44.28-1.11,35.12,9.05,35,9.15L34.82,9c.09-.1,9.35-10.37,22.39-8.8a20.7,20.7,0,0,1,12.53,6.3,27.82,27.82,0,0,1,6.73,12.67C79.16,30,76.53,44.71,64.59,53c-4.83,3.33-12.34,6-20.28,8.92C21.07,70.28-7.84,80.74,2.42,115c3.84,12.8,14.13,25,30.57,36.16,13.16,9,30.28,17.32,50.88,24.85a466.15,466.15,0,0,0,68.85,18.91Z"/>
    <path class="cls-1" d="M54.71,432.13A152.42,152.42,0,0,1,34,386.93a119.32,119.32,0,0,1,4.74-76.65c5.36-13.27,14.7-24.61,27.76-33.71,10.44-7.27,23.28-13.13,38.14-17.41a199.56,199.56,0,0,1,48.26-7.49V252a199.89,199.89,0,0,0-48.19,7.48c-14.83,4.28-27.63,10.12-38,17.38-13,9.06-22.32,20.36-27.65,33.58a119,119,0,0,0-4.73,76.47A152,152,0,0,0,54.94,432Z"/>
  </g>
</svg>
