<svg width="158px" height="33px" data-name="Слой 1" xmlns="http://www.w3.org/2000/svg" viewBox="0 0 228.71 39.79">
  <title>Logo</title>
  <g>
    <path d="M39.31,25.65c0-8,5.62-14.15,14-14.15,8.79,0,13.83,6.09,13.83,13.78A13.08,13.08,0,0,1,67,27.77H46.2c.47,3.44,2.91,6.09,7.79,6.09,3.39,0,5.45-1.54,6.51-3.55l6.31,1.85c-1.54,3.5-5.88,7.63-12.93,7.63C45.3,39.79,39.31,34.12,39.31,25.65Zm21-2.28c-.31-3.29-2.86-5.93-7-5.93a6.89,6.89,0,0,0-7.1,5.93Z"/>
    <path d="M69.14,25.65c0-8.16,5.83-14.15,13.24-14.15a10.63,10.63,0,0,1,8.64,4V12.24h7V39.05H91V35.77a10.67,10.67,0,0,1-8.64,4C75,39.79,69.14,33.75,69.14,25.65Zm22.09-.06a7.55,7.55,0,0,0-7.63-7.84c-4.39,0-7.52,3.23-7.52,7.84s3.13,8,7.52,8A7.61,7.61,0,0,0,91.23,25.59Z"/>
    <path d="M130.55.38V39.05H123.5V35.77a10.67,10.67,0,0,1-8.64,4c-7.41,0-13.24-6-13.24-14.14s5.83-14.15,13.24-14.15a10.63,10.63,0,0,1,8.64,4V.38Zm-6.84,25.21a7.55,7.55,0,0,0-7.63-7.84c-4.4,0-7.52,3.23-7.52,7.84s3.12,8,7.52,8A7.61,7.61,0,0,0,123.71,25.59Z"/>
    <path d="M178.6,2V39.05h-7.31V23.47H154.34V39.05h-7.26V2h7.26v15h16.95V2Z"/>
    <path d="M202.93,32.29l-4-6.22H191v13h-7.2V2h18.06A12.25,12.25,0,0,1,214.58,14a11.76,11.76,0,0,1-8.11,11.29l4.75,7M191,19.71h10.39c3.76,0,6.14-2.59,6.14-5.67a5.68,5.68,0,0,0-5.88-5.56H191Z"/>
    <path d="M224.19,32.32l4.52,6.73h-8.37L216,32.29"/>
    <polygon points="20.13 32.38 20.13 7.57 12.87 7.57 12.87 39.05 38.62 39.05 38.62 32.38 20.13 32.38"/>
    <rect width="7.49" height="7.49"/>
  </g>
</svg>
