<svg width="1920" height="3872" viewBox="0 0 1920 3872" fill="none" xmlns="http://www.w3.org/2000/svg">
<g clip-path="url(#clip0)">
<path d="M-151.6 22.2696L203.011 -66.8247L-213.696 -56.4681L-151.6 22.2696Z" fill="#FF715C"/>
<path d="M-47.2035 154.632L203.011 -66.8247L-108.758 76.5342L-47.2035 154.632Z" fill="#FF715C"/>
<path d="M-83.5513 30.6455L-108.758 76.5341L203.011 -66.8247L-151.6 22.2695L-83.5513 30.6455Z" fill="#EA5F50"/>
<path d="M252.928 -0.0544629L-54.859 92.9042L-131.429 8.47144L252.928 -0.0544629Z" fill="#EA5F50"/>
<path d="M-207.264 99.6908L-131.429 8.47152L-78.9615 7.28437L-89.9634 -41.438L-42.0015 -99.0377L252.928 -0.0543562L-207.264 99.6908Z" fill="#FF715C"/>
<path d="M-78.9617 7.28439L252.928 -0.0544894L-89.9635 -41.4379L-78.9617 7.28439Z" fill="#EA5F50"/>
<path d="M-40 33.2025L40.6997 2.56103L-37.8415 6.87872L-40 33.2025Z" fill="#FF715C"/>
<path d="M-36.3794 -10.8795L40.6996 2.56097L-34.4994 -34L-36.3794 -10.8795Z" fill="#FF715C"/>
<path d="M40.6996 2.5608L-36.3794 -10.8796L-30.8787 -3.01038L-37.8416 6.87848L40.6996 2.5608Z" fill="#EA5F50"/>
<path opacity="0.51" d="M929.858 -4C925.236 11.7527 918.964 26.9731 911.146 41.4077C849.741 161.34 931.175 233.992 1035.27 142.067C1109.01 77.2486 1083.72 44.0421 1065.7 -4H929.858Z" fill="#D6DDE1"/>
<path opacity="0.51" d="M1914.89 225.257C1909.62 221.375 1904.29 217.562 1898.88 213.819C1834.64 169.312 1764.29 139.017 1707.67 158.913C1564.62 209.243 1261.48 381.862 1248.59 668.45C1235.7 955.039 1020.92 793.235 959.728 846.476C898.532 899.718 886.542 1182.49 1179.49 1216.12C1472.45 1249.74 1730.68 1358.65 1781.27 1082.32C1808.99 929.805 1857.51 866.165 1915.17 823.114L1914.89 225.257Z" fill="#D6DDE1"/>
<path d="M1074.36 619.646L1070.96 547.271L1064.52 546.3L1070.41 617.913L1074.36 619.646Z" fill="#D6DDE1"/>
<path opacity="0.51" d="M1154.34 677.671L1129.04 657.774C1143.94 651.674 1120.1 649.594 1120.1 639.958C1120.1 621.379 1085.45 606.266 1042.13 606.266C998.817 606.266 964.233 621.379 964.233 639.958C964.233 658.537 998.886 673.65 1042.13 673.65H1047.95L1141.1 690.357L1154.34 677.671Z" fill="#D6DDE1"/>
<path d="M1029.03 463.526C1028.13 440.996 992.371 432.122 973.59 460.476C969.501 466.784 964.303 470.805 970.263 513.579C976.223 556.352 973.867 569.94 998.678 578.536C1023.49 587.132 1052.25 599.957 1070.82 588.727C1078.59 584.013 1115.67 567.929 1111.99 553.44C1106.86 533.059 1042.13 521.551 1042.13 521.551L1029.03 463.526Z" fill="#D6DDE1"/>
<path d="M1127.65 654.169L1129.04 657.774C1129.73 659.529 1130.8 661.113 1132.16 662.419L1143.66 673.164C1150.59 680.097 1156.9 678.641 1149.69 669.005C1149.14 668.242 1135.14 652.228 1135.14 652.228L1127.65 654.169Z" fill="#FBD2BF"/>
<path d="M1047.95 522.868C1047.95 522.868 1029.66 515.936 1022.38 526.958C1015.1 537.981 1026.19 553.995 1050.73 568.969C1067.29 578.952 1092.31 567.028 1110.81 575.902C1116.15 605.434 1113.03 626.786 1127.52 656.804L1138.95 655.487C1128.83 618.606 1135.63 574.723 1127.1 562.453C1104.02 542.071 1078.86 532.366 1047.95 522.868Z" fill="#787FD4"/>
<path d="M1121.14 658.052C1121.14 658.052 1126.82 669.767 1128.07 671.293C1129.32 672.818 1141.93 687.099 1141.17 690.288C1140.41 693.477 1122.39 678.433 1119.2 673.442C1116.39 668.48 1113.92 663.339 1111.78 658.052H1121.14Z" fill="#FBD2BF"/>
<path d="M1031.39 530.702C1031.39 530.702 992.44 527.998 986.619 540.823C980.797 553.648 993.133 567.167 1018.64 576.456C1035.76 582.696 1059.6 582.834 1078.17 587.132C1086.44 616.303 1098.96 644.099 1115.32 669.629L1126.61 665.192C1112.75 630.53 1102.15 580.269 1092.59 569.87L1031.39 530.702Z" fill="#8492FB"/>
<path d="M1051.9 665.4L1048.51 592.956L1042.06 592.055L1047.95 663.598L1051.9 665.4Z" fill="#D6DDE1"/>
<path d="M999.093 645.92L1006.02 581.101L998.816 578.536L995.074 643.632L999.093 645.92Z" fill="#D6DDE1"/>
<path d="M1118.02 671.501C1124.05 673.788 1126.82 674.759 1127.24 670.114C1127.24 670.114 1142.76 685.92 1142.14 689.456C1141.52 692.991 1138.95 692.09 1138.33 691.951C1133.41 690.703 1118.51 676.977 1118.02 671.501Z" fill="#292929"/>
<path d="M1129.04 657.774C1135.07 660.409 1141.72 664.221 1140.06 657.774C1140.06 657.774 1158.43 673.788 1154.34 677.809C1148.17 683.632 1128.49 661.032 1129.04 657.774Z" fill="#292929"/>
<path d="M1025.85 429.488C1035.27 427.755 1049.96 457.218 1061.88 486.265C1071.88 491.874 1082.79 495.676 1094.11 497.495C1100.68 497.639 1107.24 498.241 1113.72 499.298L1097.99 502.833C1097.99 502.833 1060.5 502.071 1051.9 492.296C1043.31 482.521 1035.96 436.836 1035.96 436.836L1025.85 429.488Z" fill="#F0C9BC"/>
<path d="M1035.34 436.559C1023.56 442.382 1030 477.738 1036.24 483.838C1040.82 488.275 1046.01 474.896 1052.04 471.707C1052.59 471.455 1053.22 471.408 1053.8 471.573C1054.39 471.738 1054.89 472.105 1055.23 472.608L1056.96 475.45L1060.08 474.341C1056.72 462.628 1051.45 451.549 1044.49 441.55C1041.09 437.114 1039.22 434.687 1035.34 436.559Z" fill="white"/>
<path d="M986.203 552.678C986.203 552.678 1006.23 572.713 1044.97 545.745C1061.82 534.029 1059.87 515.104 1057.86 495.485C1056.25 480.09 1052.08 465.071 1045.53 451.048C1045.53 451.048 1041.72 444.115 1037.7 436.212C1035.93 433.248 1033.45 430.771 1030.49 429.004C1027.52 427.237 1024.16 426.236 1020.72 426.091C1013.79 426.091 1011.5 420.822 1004.22 426.091C993.688 433.855 984.193 449.8 983.015 478.223C980.174 544.012 986.203 552.678 986.203 552.678Z" fill="white"/>
<path d="M1569.34 493.96L1566.43 397.321C1601.08 410.424 1638.23 433.994 1643.91 474.133V585.885C1641.41 561.413 1619.86 514.549 1569.34 493.96Z" fill="#D6DDE1"/>
<path d="M1588.53 481.689L1586.25 433.647C1611.61 443.145 1638.36 472.331 1642.45 501.516V548.449C1640.86 530.702 1625.68 503.111 1588.53 481.689Z" fill="#8492FB"/>
<path d="M1539.88 558.501L1540.64 671.5C1592.28 664.152 1633.79 652.367 1645.29 597.808L1643.56 475.519C1638.16 524.185 1602.74 553.302 1539.88 558.501Z" fill="white"/>
<path d="M1565.04 579.853L1565.46 640.79C1587.63 638.225 1620.9 622.557 1630.32 594.55L1629.49 546.785C1613.21 566.266 1590.96 573.545 1565.04 579.853Z" fill="#FF715C"/>
<path d="M1389.28 854.102L1391.08 1034.35C1579.8 1034.35 1731.72 1007.86 1774.48 920.654V699.438C1754.45 777.151 1622.84 845.783 1389.28 854.102Z" fill="white"/>
<path d="M806.287 848.14C809.614 806.06 815.228 764.95 847.247 732.576V565.434C817.999 610.067 802.946 662.513 804.07 715.869L806.287 848.14Z" fill="#D6DDE1"/>
<path d="M982.253 1005.51C893.126 978.471 815.366 921.07 806.079 847.239L804.069 709.144C811.832 776.943 876.424 847.793 980.451 883.218L982.253 1005.51Z" fill="white"/>
<path opacity="0.51" d="M893.126 937.638C859.977 919.612 834.89 889.687 822.92 853.894L822.089 800.93C840.87 839.405 864.226 856.39 892.364 872.958L893.126 937.638Z" fill="#D6DDE1"/>
<path d="M1243.26 279.122C1215.12 278.291 1190.31 287.372 1166.4 299.227L1166.05 260.127C1193.77 248.134 1219.97 240.231 1242.91 240.023L1243.26 279.122Z" fill="#D6DDE1"/>
<path d="M1004.15 425.398C1001.8 432.33 1039.15 448.206 1034.51 433.301C1031.41 429.36 1027.51 426.123 1023.07 423.803C1012.95 420.614 1011.08 418.881 1004.15 425.398Z" fill="#F0C9BC"/>
<path d="M1028.62 385.189C1028.62 385.189 1041.85 422.486 1032.29 425.328C1020.02 429.003 1014.06 428.587 1008.38 426.16C1002.7 423.734 991.817 391.983 991.817 391.983L1028.62 385.189Z" fill="#F0C9BC"/>
<path d="M1015.73 402.312C1017.19 399.687 1019.38 397.543 1022.03 396.142C1024.44 394.69 1026.75 393.093 1028.96 391.359C1035.89 386.021 1035.48 357.182 1024.81 367.997C1021.94 370.989 1018.45 373.302 1014.57 374.766C1010.7 376.229 1006.55 376.806 1002.42 376.454C997.952 377.624 994.001 380.249 991.19 383.915C988.379 387.58 986.868 392.077 986.896 396.697C988.42 403.006 984.262 402.243 991.47 410.562C994.935 414.791 989.876 416.385 995.143 421.862C996.176 422.861 997.471 423.548 998.878 423.843C1000.28 424.138 1001.75 424.03 1003.09 423.529C1004.44 423.029 1005.62 422.158 1006.49 421.017C1007.37 419.876 1007.9 418.51 1008.03 417.079C1007.34 412.503 1009.91 412.226 1014.13 404.947L1015.73 402.312Z" fill="#292929"/>
<path opacity="0.51" d="M1668.37 977.153V836.355C1662.69 838.365 1656.8 840.306 1650.77 842.109V982.491C1656.52 980.828 1662.69 979.025 1668.37 977.153Z" fill="#D6DDE1"/>
<path opacity="0.51" d="M1634.97 986.374V849.319C1629.22 850.844 1623.39 852.23 1617.36 853.617V990.395C1623.39 989.077 1629.22 987.76 1634.97 986.374Z" fill="#D6DDE1"/>
<path opacity="0.51" d="M1601.98 994.277V859.509L1584.44 862.698V997.535C1590.4 996.564 1596.23 995.525 1601.98 994.277Z" fill="#D6DDE1"/>
<path opacity="0.51" d="M1568.57 1000.59V866.511C1562.82 867.343 1557 868.175 1551.04 868.868V1002.94L1568.57 1000.59Z" fill="#D6DDE1"/>
<path opacity="0.51" d="M1532.53 1004.33V872.612L1515 874.276V1005.99L1532.53 1004.33Z" fill="#D6DDE1"/>
<path opacity="0.51" d="M1499.13 1008.63V877.395L1481.6 878.504V1009.81L1499.13 1008.63Z" fill="#D6DDE1"/>
<path opacity="0.51" d="M1464.41 1010.71V880.446L1446.87 881.139V1011.4L1464.41 1010.71Z" fill="#D6DDE1"/>
<path opacity="0.51" d="M1431 1012.16V880.029H1413.47V1012.23L1431 1012.16Z" fill="#D6DDE1"/>
<path opacity="0.51" d="M1720.84 814.032L1721.81 837.118L1696.44 840.514C1698.52 857.915 1725.62 866.442 1737.61 852.577C1740.85 849.381 1743.04 845.28 1743.9 840.813C1744.76 836.346 1744.25 831.723 1742.44 827.551C1740.62 823.38 1737.59 819.856 1733.73 817.443C1729.88 815.03 1725.38 813.841 1720.84 814.032V814.032Z" fill="#D6DDE1"/>
<path opacity="0.51" d="M1720.84 893.756L1721.81 916.841L1696.44 920.238C1698.52 937.639 1725.62 946.165 1737.61 932.3C1740.85 929.104 1743.04 925.003 1743.9 920.536C1744.76 916.069 1744.25 911.446 1742.44 907.275C1740.62 903.103 1737.59 899.579 1733.73 897.166C1729.88 894.753 1725.38 893.564 1720.84 893.756V893.756Z" fill="#D6DDE1"/>
<path opacity="0.51" d="M934.224 906.373L935.195 929.458L909.829 932.924C911.908 950.255 939.006 958.852 950.996 944.918C954.233 941.722 956.426 937.62 957.288 933.153C958.15 928.686 957.64 924.063 955.825 919.892C954.01 915.721 950.975 912.197 947.119 909.784C943.264 907.371 938.768 906.182 934.224 906.373V906.373Z" fill="#D6DDE1"/>
<path d="M1914.54 1816.88C1752.25 1785.44 1592.61 1741.6 1437.03 1685.72C1294.13 1633.45 1175.34 1575.43 1083.99 1513.17C969.639 1435.32 898.116 1350.61 871.364 1261.45C799.703 1022.49 1001.03 949.493 1162.86 891.052C1217.82 871.225 1269.73 852.438 1303 829.422C1384.92 772.923 1403 671.986 1384.5 597.115C1377 564.606 1361.11 534.632 1338.41 510.182C1315.67 486.397 1285.36 471.274 1252.68 467.408C1163.35 456.594 1099.86 527.028 1099.24 527.721L1097.78 526.404C1098.41 525.71 1162.58 454.514 1252.96 465.398C1286.09 469.386 1316.8 484.807 1339.8 509.003C1362.65 533.664 1378.65 563.871 1386.23 596.63C1404.87 672.194 1386.65 773.962 1303.9 831.086C1270.42 854.171 1218.37 873.028 1163.35 892.924C1002.49 951.226 802.129 1023.74 873.374 1260.9C899.987 1349.64 971.302 1434.21 1085.24 1511.58C1176.45 1573.97 1295.1 1631.65 1437.86 1683.85C1593.33 1739.69 1752.86 1783.51 1915.03 1814.94L1914.54 1816.88Z" fill="#D6DDE1"/>
<path d="M1025.85 442.66C1023 477.322 1044.9 505.814 1041.58 554.966C1035.48 561.898 1005.54 572.99 981.767 564.671C974.49 480.857 983.5 435.727 1004.71 424.982C1002.14 430.25 1011.98 438.985 1025.85 442.66Z" fill="#FF715C"/>
<path d="M1070.62 541.517C1058.63 475.45 1044 435.172 1030.97 429.418C1036.1 432.677 1038.39 437.876 1036.73 439.401C1052.25 456.732 1054.12 499.852 1059.04 546.993L1070.62 541.517Z" fill="#FF715C"/>
<path d="M1072.7 525.849C1072.7 525.849 1030.28 535.347 1027.51 536.733C1024.74 538.12 1023.56 541.794 1030.77 546.092C1037.97 550.39 1064.31 566.058 1071.79 564.394C1079.28 562.73 1115.94 541.17 1115.94 541.17L1072.7 525.849Z" fill="#C9CFD1"/>
<path d="M998.817 457.842C998.817 457.842 1004.29 503.111 1009.97 515.52C1015.66 527.929 1054.95 530.286 1061.4 530.078C1066.96 530.47 1072.43 531.709 1077.62 533.752C1089.05 535.069 1085.73 527.444 1061.88 523.423C1054.95 522.175 1024.04 513.579 1023 509.974C1021.96 506.369 1016.07 461.447 1016.07 461.447C1013.99 448.067 1000.55 444.947 998.817 457.842Z" fill="#F0C9BC"/>
<path d="M1081.29 502.071L1122.87 489.038C1122.87 489.038 1139.78 487.79 1138.47 500.823C1137.11 511.911 1134.79 522.86 1131.54 533.544C1130.55 536.615 1128.92 539.44 1126.76 541.831C1124.6 544.222 1121.95 546.124 1118.99 547.409C1105.13 553.302 1076.51 565.156 1072 564.602C1069.92 564.51 1067.89 563.95 1066.05 562.964C1064.22 561.978 1062.63 560.591 1061.4 558.905C1060.18 557.22 1059.35 555.28 1058.97 553.23C1058.6 551.179 1058.7 549.071 1059.25 547.063C1060.84 533.614 1064.31 506.092 1081.29 502.071Z" fill="#D6DDE1"/>
<path d="M1003.32 442.729C988.005 446.958 988.144 489.315 994.312 497.773C996.045 500.13 1002.14 499.575 1005.05 497.773V497.149C1005.03 496.648 1005.12 496.148 1005.33 495.69C1005.53 495.233 1005.84 494.83 1006.23 494.514C1009.3 491.588 1012.87 489.24 1016.77 487.582C1017.11 487.49 1017.46 487.472 1017.81 487.53C1018.15 487.588 1018.48 487.72 1018.77 487.918C1019.06 488.116 1019.3 488.374 1019.48 488.675C1019.67 488.976 1019.78 489.313 1019.82 489.662L1020.16 492.227L1024.53 489.107C1024.67 485.918 1020.51 438.015 1003.32 442.729Z" fill="white"/>
<path d="M1372.86 1659.38L1061.33 1586.31L1037.42 1475.39L1372.86 1659.38Z" fill="#EA5F50"/>
<path d="M926.6 1516.29L1037.42 1475.39L1083.16 1500.56L1097.99 1453.07L1167.92 1427.21L1372.86 1659.38L926.6 1516.29Z" fill="#FF715C"/>
<path d="M1083.16 1500.56L1372.86 1659.38L1097.99 1453.07L1083.16 1500.56Z" fill="#EA5F50"/>
<path d="M1355.88 619.715L1386.37 700.062L1382.07 621.864L1355.88 619.715Z" fill="#FF715C"/>
<path d="M1399.75 623.32L1386.37 700.062L1422.69 625.261L1399.75 623.32Z" fill="#FF715C"/>
<path d="M1235.63 3459.74C1170.92 3363.86 1122.38 3258.01 1091.96 3146.39C1044.07 2970.49 1055.62 2783.68 1124.81 2615.02C1161.96 2523.03 1226.83 2444.41 1316.93 2381.33C1389.28 2330.93 1478.27 2290.3 1581.26 2260.63C1690.2 2229.69 1802.53 2212.25 1915.72 2208.71V2210.65C1802.7 2214.23 1690.54 2231.65 1581.74 2262.5C1478.96 2292.18 1390.25 2332.73 1318.38 2382.99C1228.29 2445.8 1163.69 2524.14 1126.75 2615.78C1057.7 2784.05 1046.18 2970.42 1093.97 3145.91C1124.28 3257.3 1172.67 3362.95 1237.23 3458.63L1235.63 3459.74Z" fill="#D6DDE1"/>
<path d="M1281.72 2394.71L1094.87 2707.15L1380.83 2406.42L1281.72 2394.71Z" fill="#FF715C"/>
<path d="M1115.04 2375.09L1094.87 2707.15L1213.32 2386.66L1115.04 2375.09Z" fill="#FF715C"/>
<path opacity="0.51" d="M1344.65 3100.85C1344.65 3100.85 1217.4 2939.46 1353.87 2818.7C1490.33 2697.93 1445.7 2783.27 1565.11 2772.73C1684.52 2762.2 1701.57 2746.46 1748.84 2670.34C1796.1 2594.22 1916 2588.75 1916 2588.75V3100.57L1344.65 3100.85Z" fill="#D6DDE1"/>
<path d="M1369.81 3677.49L1185.39 3670.35L1116.36 3677.49V3605.74L1124.88 3413.85L1116.36 3318.74L1213.11 3325.81L1369.81 3318.74L1363.01 3394.3L1364.75 3603.38L1369.81 3677.49Z" fill="white" stroke="#FF715C" stroke-width="3" stroke-miterlimit="10"/>
<path d="M1199.73 3374.75C1200.69 3375.16 1201.5 3375.83 1202.09 3376.69C1202.65 3377.58 1202.94 3378.62 1202.92 3379.67C1202.96 3380.72 1202.67 3381.75 1202.1 3382.63C1201.53 3383.51 1200.7 3384.2 1199.73 3384.59C1198.61 3385.04 1197.41 3385.25 1196.2 3385.22H1193.15V3389.45H1189.54V3374.13H1196.47C1197.59 3374.13 1198.69 3374.34 1199.73 3374.75V3374.75ZM1198.48 3381.68C1198.76 3381.45 1198.99 3381.15 1199.13 3380.81C1199.27 3380.47 1199.34 3380.11 1199.32 3379.74C1199.33 3379.37 1199.27 3378.99 1199.12 3378.64C1198.98 3378.3 1198.76 3377.99 1198.48 3377.73C1197.75 3377.24 1196.87 3376.99 1195.99 3377.04H1193.15V3382.38H1195.99C1196.89 3382.44 1197.77 3382.16 1198.48 3381.61V3381.68Z" fill="#FF715C"/>
<path d="M1218.24 3386.61V3389.45H1206.04V3374.13H1217.68V3376.97H1209.85V3380.3H1216.78V3383.07H1209.85V3386.61H1218.24Z" fill="#FF715C"/>
<path d="M1233.07 3382.86C1233.53 3383.53 1233.78 3384.33 1233.76 3385.15C1233.79 3386.05 1233.47 3386.92 1232.86 3387.58C1232.18 3388.32 1231.32 3388.87 1230.36 3389.17C1229.27 3389.54 1228.12 3389.73 1226.97 3389.72C1225.89 3389.73 1224.82 3389.59 1223.78 3389.31C1222.73 3389.08 1221.72 3388.68 1220.8 3388.13L1221.91 3385.57C1222.6 3385.99 1223.35 3386.31 1224.13 3386.54C1224.93 3386.64 1225.75 3386.64 1226.55 3386.54C1227.44 3386.59 1228.33 3386.4 1229.12 3385.98C1229.43 3385.85 1229.69 3385.62 1229.88 3385.34C1230.06 3385.06 1230.16 3384.72 1230.16 3384.39C1230.17 3384.12 1230.11 3383.86 1229.99 3383.63C1229.87 3383.4 1229.69 3383.21 1229.46 3383.07C1228.87 3382.76 1228.2 3382.62 1227.52 3382.65H1223.78V3379.95H1227.25C1227.85 3379.99 1228.46 3379.84 1228.98 3379.53C1229.16 3379.38 1229.31 3379.19 1229.4 3378.98C1229.5 3378.76 1229.54 3378.52 1229.53 3378.29C1229.53 3378 1229.45 3377.72 1229.31 3377.48C1229.16 3377.24 1228.95 3377.04 1228.7 3376.9C1228.02 3376.54 1227.25 3376.38 1226.48 3376.41C1225.79 3376.31 1225.09 3376.31 1224.4 3376.41C1223.68 3376.61 1222.98 3376.89 1222.33 3377.25L1221.29 3374.47C1222.91 3373.63 1224.72 3373.2 1226.55 3373.23C1227.66 3373.2 1228.76 3373.37 1229.81 3373.71C1230.74 3374.02 1231.58 3374.57 1232.24 3375.3C1232.53 3375.61 1232.76 3375.97 1232.92 3376.36C1233.07 3376.75 1233.15 3377.17 1233.14 3377.59C1233.14 3378.3 1232.94 3378.99 1232.58 3379.6C1232.14 3380.17 1231.57 3380.62 1230.92 3380.92C1231.82 3381.32 1232.58 3382 1233.07 3382.86V3382.86Z" fill="#FF715C"/>
<path d="M1255.45 3374.89C1256.65 3375.58 1257.65 3376.55 1258.36 3377.73C1259.04 3378.98 1259.4 3380.37 1259.4 3381.79C1259.4 3383.2 1259.04 3384.6 1258.36 3385.84C1257.65 3387.02 1256.65 3388 1255.45 3388.68C1254.18 3389.39 1252.75 3389.74 1251.29 3389.72C1249.98 3389.74 1248.67 3389.45 1247.48 3388.89C1246.38 3388.35 1245.41 3387.57 1244.64 3386.61C1243.93 3385.59 1243.45 3384.43 1243.26 3383.21H1241.25V3389.45H1237.71V3374.13H1241.25V3380.16H1243.32C1243.51 3378.94 1244.01 3377.79 1244.78 3376.83C1245.51 3375.87 1246.46 3375.11 1247.55 3374.61C1248.73 3374.1 1250.01 3373.84 1251.29 3373.85C1252.75 3373.83 1254.18 3374.19 1255.45 3374.89V3374.89ZM1253.58 3385.98C1254.3 3385.6 1254.86 3384.99 1255.18 3384.25C1255.61 3383.46 1255.83 3382.58 1255.8 3381.68C1255.82 3380.79 1255.6 3379.91 1255.18 3379.12C1254.82 3378.4 1254.27 3377.8 1253.58 3377.39C1252.89 3376.97 1252.1 3376.75 1251.29 3376.76C1250.47 3376.74 1249.65 3376.96 1248.94 3377.39C1248.38 3377.83 1247.93 3378.4 1247.62 3379.05C1247.2 3379.84 1246.98 3380.72 1247 3381.61C1246.97 3382.51 1247.19 3383.4 1247.62 3384.18C1247.96 3384.91 1248.52 3385.51 1249.22 3385.91C1249.93 3386.34 1250.74 3386.55 1251.57 3386.54C1252.28 3386.52 1252.97 3386.33 1253.58 3385.98V3385.98Z" fill="#FF715C"/>
<path d="M1277.22 3389.45V3380.3L1272.71 3387.85H1271.12L1266.61 3380.44V3389.45H1263.22V3374.13H1266.2L1271.95 3383.62L1277.63 3374.13H1280.54V3389.45H1277.22Z" fill="#FF715C"/>
<path d="M1297.38 3386.61V3389.45H1285.46V3374.13H1297.11V3376.97H1289.2V3380.3H1296.14V3383.07H1289.2V3386.61H1297.38Z" fill="#FF715C"/>
<path d="M1332.45 3445.46H1156.62V3459.67H1332.45V3445.46Z" fill="#F4F5F9"/>
<path d="M1332.45 3475.83H1156.62V3490.04H1332.45V3475.83Z" fill="#F4F5F9"/>
<path d="M1332.45 3507.99H1156.62V3522.2H1332.45V3507.99Z" fill="#F4F5F9"/>
<path d="M1332.45 3540.16H1156.62V3554.37H1332.45V3540.16Z" fill="#F4F5F9"/>
<path d="M1332.45 3603.73H1156.62V3617.94H1332.45V3603.73Z" fill="#F4F5F9"/>
<path d="M994.658 3403.24C998.448 3403.24 1001.52 3400.17 1001.52 3396.38C1001.52 3392.59 998.448 3389.52 994.658 3389.52C990.869 3389.52 987.797 3392.59 987.797 3396.38C987.797 3400.17 990.869 3403.24 994.658 3403.24Z" fill="#FF715C"/>
<path d="M1469.33 3639.16C1472.28 3639.16 1474.67 3636.77 1474.67 3633.82C1474.67 3630.87 1472.28 3628.48 1469.33 3628.48C1466.38 3628.48 1463.99 3630.87 1463.99 3633.82C1463.99 3636.77 1466.38 3639.16 1469.33 3639.16Z" fill="#FF715C"/>
<path d="M1386.37 700.062L1399.75 623.32L1391.85 628.866L1382.07 621.864L1386.37 700.062Z" fill="#EA5F50"/>
<path d="M1227.87 2436.72L1213.32 2386.66L1094.87 2707.15L1281.72 2394.71L1227.87 2436.72Z" fill="#EA5F50"/>
</g>
<defs>
<clipPath id="clip0">
<rect width="1920" height="3872" fill="white"/>
</clipPath>
</defs>
</svg>
