<svg id="Слой_1" data-name="Слой 1" xmlns="http://www.w3.org/2000/svg" viewBox="0 0 1902.23 3840">
  <defs>
    <style>
      .cls-1, .cls-2 {
        fill: #d6dde1;
      }

      .cls-2 {
        opacity: 0.51;
      }

      .cls-3 {
        fill: #fbd2bf;
      }

      .cls-4 {
        fill: #787fd4;
      }

      .cls-5 {
        fill: #8492fb;
      }

      .cls-6 {
        fill: #292929;
      }

      .cls-7 {
        fill: #f0c9bc;
      }

      .cls-8 {
        fill: #fff;
      }

      .cls-9 {
        fill: #ff715c;
      }

      .cls-10 {
        fill: #ecc3b3;
      }

      .cls-11 {
        fill: #c9cfd1;
      }

      .cls-12 {
        fill: #ea5f50;
      }

      .cls-13 {
        fill: #f4f5f9;
      }

      .cls-14 {
        fill: none;
      }
    </style>
  </defs>
  <polygon class="cls-1" points="1067.71 618.52 1064.34 546.77 1057.93 545.83 1063.81 616.78 1067.71 618.52"/>
  <path class="cls-2" d="M1147,671.32l-25-19.68c14.75-6.08-8.93-8.15-8.93-17.65,0-18.44-34.59-33.39-77.26-33.39S958.51,615.55,958.51,634s34.59,33.38,77.26,33.38c1.94,0,3.85,0,5.75-.1l92.37,16.57Z" transform="translate(0 4.68)"/>
  <path class="cls-1" d="M1022.74,459.06c-.85-22.29-36.33-31.11-54.78-3-4.11,6.26-9.22,10.29-3.29,52.67,6,43.11,3.54,55.83,28.12,64.36s53.12,21.22,71.55,10.13c7.73-4.66,44.49-20.41,40.82-35-5.08-20.2-69.29-31.58-69.29-31.58Z" transform="translate(0 4.68)"/>
  <path class="cls-3" d="M1120.59,648l1.37,3.6a11.91,11.91,0,0,0,3.1,4.57l11.6,10.66c6.6,7,13.11,5.47,6-4.12-.57-.76-14.48-16.59-14.48-16.59Z" transform="translate(0 4.68)"/>
  <path class="cls-4" d="M1041.52,517.75s-18.15-7-25.34,4.07,3.75,26.83,28.12,41.62c16.38,9.94,41.53-1.87,59.57,6.52,5.26,29.32,2.16,50.47,16.55,80.2l11.37-1.27c-10-36.58-3.3-80-11.78-92.24C1097.1,537,1072.15,527.3,1041.52,517.75Z" transform="translate(0 4.68)"/>
  <path class="cls-3" d="M1114.11,651.92s5.65,11.64,6.82,13.13,14,15.63,13,18.79-18.65-11.72-21.81-16.71-7.28-15.21-7.28-15.21Z" transform="translate(0 4.68)"/>
  <path class="cls-5" d="M1025.09,525.65s-38.61-2.68-44.41,10.09,6.52,26.08,31.77,35.28c17,6.19,40.66,6.36,59.07,10.61,8.25,28.23,19.63,55.21,36.79,81.74L1119.5,659c-13.68-34.41-24.2-84.22-33.74-94.5Z" transform="translate(0 4.68)"/>
  <polygon class="cls-1" points="1045.45 663.84 1042.09 592.1 1035.67 591.15 1041.55 662.11 1045.45 663.84"/>
  <polygon class="cls-1" points="993.06 644.53 999.93 580.29 992.79 577.76 989.06 642.29 993.06 644.53"/>
  <path class="cls-6" d="M1111,665.24c6,2.27,8.77,3.2,9.21-1.4,0,0,15.38,15.71,14.76,19.19s-3.21,2.6-3.79,2.46C1126.24,684.27,1111.52,670.67,1111,665.24Z" transform="translate(0 4.68)"/>
  <path class="cls-6" d="M1122,651.64c5.94,2.59,12.56,6.36,10.89-.15,0,0,18.19,15.9,14.16,19.83C1140.9,677.29,1121.4,654.89,1122,651.64Z" transform="translate(0 4.68)"/>
  <path class="cls-7" d="M1019.24,425.33c9.41-1.68,24,27.43,35.77,56.32,0,0,19.15,10.58,32,11.09a140.55,140.55,0,0,1,19.43,1.82l-15.62,3.52s-36.61-.67-45.32-10.45S1029.63,433,1029.63,433Z" transform="translate(0 4.68)"/>
  <path class="cls-8" d="M1029.05,432.37c-11.74,5.72-5.35,40.79.88,46.87,4.51,4.39,9.67-8.89,15.68-12.05a2.41,2.41,0,0,1,3.12.93l1.74,2.76,3.06-1.07c.75-.25-7.23-22-15.43-32.52C1034.69,432.92,1032.9,430.5,1029.05,432.37Z" transform="translate(0 4.68)"/>
  <path class="cls-8" d="M980.29,547.46s19.87,19.86,58.28-6.77c16.7-11.58,14.77-30.36,12.77-49.77a138,138,0,0,0-12.23-44c.09-.38-3.77-7.2-7.77-14.71-4.23-7.95-13.69-10.14-16.84-10.08-6.54.13-9.12-5.23-16.36.11-10.45,7.71-19.81,23.5-21,51.64C974.3,538.9,980.29,547.46,980.29,547.46Z" transform="translate(0 4.68)"/>

  <path class="cls-7" d="M998.12,421.32c-2.37,6.63,34.69,22.56,30.06,7.8-.62-2-8.46-8.24-11.31-9.41C1006.8,416.54,1005,415.13,998.12,421.32Z" transform="translate(0 4.68)"/>
  <path class="cls-7" d="M1022.38,381.4s13.08,37,3.6,39.83c-12.12,3.62-18,3.23-23.7.83s-16.44-33.93-16.44-33.93Z" transform="translate(0 4.68)"/>
  <path class="cls-6" d="M1009.56,398.39a15.92,15.92,0,0,1,6.24-6.13,65.69,65.69,0,0,0,6.86-4.71c7.12-5.26,6.43-33.88-4.14-23.16-7.59,7.7-13.61,7.89-22.17,8.41s-16.84,13.72-15.39,20-2.64,5.49,4.48,14.07c3.44,4.14-1.54,5.77,3.64,11.15s13.55-.24,12.83-4.73,1.84-4.82,6-12Z" transform="translate(0 4.68)"/>
  <path class="cls-10" d="M1017.32,433.65" transform="translate(0 4.68)"/>
  
  

  <path class="cls-1" d="M1900.79,1800.63c-2.29-.41-232.27-41.88-473.46-130-141.68-51.8-259.46-109.34-350.07-171C963.9,1422.39,893,1338.44,866.45,1250.05c-71.08-236.87,128.58-309.11,289-367.15,54.49-19.71,106-38.33,139-61.11,81.25-56,99.15-156,80.84-230.28-8.39-34-24.2-63.8-45.74-86.16-23.13-24-52.51-38.79-85-42.71-88.58-10.72-151.54,59.09-152.16,59.8l-1.47-1.3c.64-.71,64.27-71.28,153.87-60.44,32.91,4,62.7,18.95,86.14,43.29,21.77,22.62,37.76,52.72,46.23,87,18.46,74.89.39,175.78-81.63,232.36-33.22,22.92-84.8,41.58-139.4,61.34-159.66,57.76-358.35,129.65-287.81,364.75,26.39,87.94,97.06,171.53,210,248.45,90.47,61.6,208.1,119.06,349.63,170.8,241,88.11,470.86,129.55,473.16,130Z" transform="translate(0 4.68)"/>
  <path class="cls-9" d="M1019.24,438.4c-2.82,34.1,19,62.62,15.64,111.31-6.08,7-35.74,17.89-59.31,9.64-7.24-83.07,1.68-127.81,22.76-138.48C996.13,426.1,1006.07,434.79,1019.24,438.4Z" transform="translate(0 4.68)"/>
  <path class="cls-9" d="M1064,536.37c-11.88-65.44-26.4-105.38-39.29-111.11,5.07,3.26,7.37,8.39,5.7,9.94,15.39,17.14,17.24,59.89,22.09,106.59Z" transform="translate(0 4.68)"/>
  <path class="cls-11" d="M1066.06,520.88s-42.07,9.37-44.8,10.94-3.93,5,3.26,9.22,33.26,19.85,40.64,18.19,43.7-23.21,43.7-23.21Z" transform="translate(0 4.68)"/>
  <path class="cls-7" d="M992.79,453.46s5.44,44.86,11.08,57.15,44.57,14.63,51,14.47,16.13,3.58,16.13,3.58c11.33,1.34,8-6.21-15.66-10.23-7.11-1.21-37.49-9.71-38.51-13.3s-7-48.34-7-48.34C1007.84,443.73,994.52,440.66,992.79,453.46Z" transform="translate(0 4.68)"/>
  <path class="cls-1" d="M1074.7,497.49l40.86-13.12s16.74-1.26,15.42,11.68a190.38,190.38,0,0,1-6.76,32.44,22.27,22.27,0,0,1-12.49,13.65c-13.75,5.88-42.1,17.63-46.57,17.09-6.25-.77-14.44-4.23-12.66-17.44S1057.78,501.29,1074.7,497.49Z" transform="translate(0 4.68)"/>
  <path class="cls-8" d="M997.3,438.49c-15.23,4.2-15.09,46.19-8.95,54.53,1.73,2.35,7.75,1.8,10.67,0l0-.66a3.15,3.15,0,0,1,1.2-2.59c3.48-2.82,7-6,10.44-7a2.47,2.47,0,0,1,3,2.1l.37,2.57,4.3-3.1C1018.45,481.26,1014.29,433.8,997.3,438.49Z" transform="translate(0 4.68)"/>

  <g id="midPlane">
    <polygon id="midPlane-l" class="cls-12" points="1363.69 1649.17 1054.82 1576.72 1031.05 1466.8 1363.69 1649.17"/>
    <polygon class="cls-9" points="921.21 1507.35 1031.05 1466.8 1076.47 1491.7 1091.13 1444.63 1160.5 1419.03 1363.69 1649.17 921.21 1507.35"/>
    <polygon class="cls-12" points="1076.47 1491.7 1363.69 1649.17 1091.13 1444.63 1076.47 1491.7"/>
  </g>

  <g id="smallPlane">
    <!-- <polygon  id="smallPlane-l" class="cls-9" points="1346.82 618.58 1372.82 620.73 1382.51 627.64 1390.34 622.18 1413.09 624.06 1377.07 698.24 1346.82 618.58"/> -->
    <path class="cls-9" id="smallPlane-l" d="M1346.82,618.58 L1372.82,620.73,1382.51,627.64,1390.34,622.18"></path>
    <path class="cls-9" id="smallPlane-r" d="M1413.09,624.06,L1377.07,698.24,1346.82,618.58,1346.82,618.58"></path>
    <!-- <polygon  id="smallPlane-r" class="cls-9" points=""/> -->
    <polygon id="smallPlane-c" class="cls-12" points="1377.07 698.24 1390.34 622.18 1382.51 627.64 1372.82 620.73 1377.07 698.24"/>
  </g>

  <path class="cls-1" d="M1227.59,3429.08C1160.9,3328.48,1113,3224,1085.18,3118.5c-47.19-179.09-36.23-356.3,32.58-526.72,36.82-91.21,101-169.14,190.76-231.64,71.76-50,159.94-90.24,262.08-119.68,173.87-50.11,330.06-51.46,331.62-51.47v2c-1.56,0-157.52,1.35-331.13,51.4-101.93,29.39-189.91,69.56-261.49,119.41-89.42,62.27-153.36,139.91-190,230.76-68.65,170-79.58,346.81-32.49,525.48,27.74,105.28,75.57,209.58,142.14,310Z" transform="translate(0 4.68)"/>
  <polygon class="cls-9" points="1108.07 2358.58 1205.52 2370.09 1219.96 2419.73 1273.3 2378.1 1371.58 2389.7 1088.04 2687.76 1108.07 2358.58"/>
  <polygon class="cls-12" points="1088.04 2687.76 1205.52 2370.09 1219.96 2419.73 1088.04 2687.76"/>
  <polygon class="cls-12" points="1273.3 2378.1 1088.04 2687.76 1219.96 2419.73 1273.3 2378.1"/>
  <polygon class="cls-9" points="1381.12 3669.68 1169.19 3661.86 1089.82 3669.68 1089.82 3590.65 1099.6 3379.24 1089.82 3274.5 1201.06 3282.32 1381.12 3274.5 1373.3 3357.76 1375.26 3588.04 1381.12 3669.68"/>
  <polygon class="cls-8" points="1360.67 3649.63 1177.82 3642.58 1109.33 3649.63 1109.33 3578.5 1117.77 3388.27 1109.33 3294.02 1205.31 3301.06 1360.67 3294.02 1353.92 3368.94 1355.61 3576.16 1360.67 3649.63"/>
  <g>
    <path class="cls-9" d="M1192.05,3344.88a5.26,5.26,0,0,1,2.3,1.92,5.77,5.77,0,0,1,0,5.86,5.13,5.13,0,0,1-2.3,1.92,8.6,8.6,0,0,1-3.52.66h-3.06v4.2h-3.53v-15.23h6.59A8.44,8.44,0,0,1,1192.05,3344.88Zm-1.3,6.8a2.34,2.34,0,0,0,.83-1.94,2.38,2.38,0,0,0-.83-2,3.66,3.66,0,0,0-2.41-.69h-2.87v5.29h2.87A3.66,3.66,0,0,0,1190.75,3351.68Z" transform="translate(0 4.68)"/>
    <path class="cls-9" d="M1210.37,3356.61v2.83h-11.8v-15.23h11.51V3347h-8v3.31h7.08v2.74h-7.08v3.52Z" transform="translate(0 4.68)"/>
    <path class="cls-9" d="M1225.05,3352.92a3.6,3.6,0,0,1,.75,2.26,3.49,3.49,0,0,1-.92,2.41,5.69,5.69,0,0,1-2.47,1.57,10.33,10.33,0,0,1-3.41.54,12.82,12.82,0,0,1-3.12-.39,11.62,11.62,0,0,1-3-1.19l1.09-2.53a8.07,8.07,0,0,0,2.21.93,9.34,9.34,0,0,0,2.36.31,5.44,5.44,0,0,0,2.6-.56,1.76,1.76,0,0,0,1-1.59,1.42,1.42,0,0,0-.71-1.29,3.66,3.66,0,0,0-1.93-.43h-3.72v-2.66h3.46a2.81,2.81,0,0,0,1.67-.43,1.43,1.43,0,0,0,.6-1.2,1.54,1.54,0,0,0-.86-1.39,4.3,4.3,0,0,0-2.21-.5,8.41,8.41,0,0,0-2.07.27,8.06,8.06,0,0,0-2,.81l-1.07-2.74a11.22,11.22,0,0,1,5.22-1.24,10.18,10.18,0,0,1,3.29.52,5.55,5.55,0,0,1,2.39,1.53,3.35,3.35,0,0,1,.89,2.33,3.3,3.3,0,0,1-.58,1.93,3.8,3.8,0,0,1-1.61,1.31A4.41,4.41,0,0,1,1225.05,3352.92Z" transform="translate(0 4.68)"/>
    <path class="cls-9" d="M1247.25,3345a7.5,7.5,0,0,1,2.88,2.82,8.35,8.35,0,0,1,0,8.07,7.5,7.5,0,0,1-2.88,2.82,8.37,8.37,0,0,1-4.13,1,8.57,8.57,0,0,1-3.74-.81,7.47,7.47,0,0,1-4.2-5.65h-2v6.2h-3.5v-15.23h3.5v6h2a7.5,7.5,0,0,1,4.22-5.46,8.64,8.64,0,0,1,3.68-.78A8.37,8.37,0,0,1,1247.25,3345Zm-1.84,11.12a4.32,4.32,0,0,0,1.61-1.72,5.87,5.87,0,0,0,0-5.09,4.29,4.29,0,0,0-3.9-2.33,4.33,4.33,0,0,0-2.28.61,4.24,4.24,0,0,0-1.61,1.72,5.78,5.78,0,0,0,0,5.09,4.18,4.18,0,0,0,1.61,1.72,4.33,4.33,0,0,0,2.28.61A4.39,4.39,0,0,0,1245.41,3356.09Z" transform="translate(0 4.68)"/>
    <path class="cls-9" d="M1268.87,3359.44l0-9.12-4.49,7.51h-1.56l-4.49-7.33v8.94H1255v-15.23h2.92l5.7,9.47,5.62-9.47h2.92l0,15.23Z" transform="translate(0 4.68)"/>
    <path class="cls-9" d="M1288.85,3356.61v2.83h-11.8v-15.23h11.52V3347h-8v3.31h7.07v2.74h-7.07v3.52Z" transform="translate(0 4.68)"/>
  </g>
  <rect class="cls-13" x="1149.26" y="3419.61" width="174.34" height="14.1"/>
  <rect class="cls-13" x="1149.26" y="3449.73" width="174.34" height="14.1"/>
  <rect class="cls-13" x="1149.26" y="3481.6" width="174.34" height="14.1"/>
  <rect class="cls-13" x="1149.26" y="3513.47" width="174.34" height="14.1"/>
  <rect class="cls-13" x="1149.26" y="3576.54" width="174.34" height="14.1"/>
  <circle class="cls-9" cx="988.69" cy="3370.96" r="6.83"/>
  <circle class="cls-9" cx="1459.34" cy="3606.34" r="5.28"/>
  <path class="cls-2" d="M924.55-4.68c-3.09,11.93-9.08,26.62-18.66,45.33-60.91,118.92,19.84,190.93,123,99.81C1102,76,1076.84,43.11,1059-4.68Z" transform="translate(0 4.68)"/>
  <rect class="cls-14" y="4.68" width="1901.14" height="3835.32"/>
</svg>
