<svg width="1920" height="3872" viewBox="0 0 1920 3872" fill="none" xmlns="http://www.w3.org/2000/svg">
<g clip-path="url(#clip0)">
<g clip-path="url(#clip1)">
<path d="M1074.23 619.189L1070.88 546.497L1064.34 545.522L1070.33 617.379L1074.23 619.189Z" fill="#D6DDE1"/>
<path opacity="0.51" d="M1154.59 677.329L1128.89 657.485C1143.87 651.288 1119.91 649.199 1119.91 639.59C1119.91 620.86 1085.09 605.751 1041.57 605.751C998.04 605.751 963.29 620.86 963.29 639.59C963.29 658.321 998.11 673.43 1041.57 673.43H1047.41L1141.01 690.21L1154.59 677.329Z" fill="#D6DDE1"/>
<path d="M1028.68 462.316C1027.78 439.756 991.842 430.844 972.97 459.252C968.791 465.588 963.568 469.696 969.627 512.657C975.686 555.618 973.179 569.196 998.11 577.83C1023.04 586.464 1052.29 599.345 1070.81 588.135C1078.68 583.4 1115.87 567.246 1112.18 552.624C1107.03 532.153 1041.98 520.665 1041.98 520.665L1028.68 462.316Z" fill="#D6DDE1"/>
<path d="M1127.85 653.795L1129.17 657.485C1129.88 659.24 1130.97 660.812 1132.38 662.081L1144.07 672.873C1151.04 679.836 1157.38 678.443 1150.2 668.695L1135.86 651.915L1127.85 653.795Z" fill="#FBD2BF"/>
<path d="M1047.69 521.779C1047.69 521.779 1029.31 514.816 1022 525.956C1014.68 537.097 1025.83 553.112 1050.48 567.734C1067.12 577.83 1092.61 565.854 1110.86 574.696C1116.22 604.428 1113.08 625.873 1127.64 655.953L1139.2 654.7C1128.89 617.588 1135.86 573.582 1127.22 561.188C1104.03 541.275 1078.75 531.457 1047.69 521.779Z" fill="#787FD4"/>
<path d="M1121.23 657.764C1121.23 657.764 1127.01 669.531 1128.2 671.063C1129.38 672.594 1142.12 686.868 1141.36 690.071C1140.59 693.274 1122.49 678.234 1119.28 673.151C1116.48 668.195 1114.01 663.054 1111.9 657.764H1121.23Z" fill="#FBD2BF"/>
<path d="M1031.4 529.786C1031.4 529.786 992.26 527.07 986.41 540.021C980.56 552.972 993.374 566.48 1018.58 575.81C1035.78 582.077 1059.81 582.216 1078.4 586.533C1086.72 615.81 1099.3 643.705 1115.73 669.322L1127.08 664.935C1113.15 630.121 1102.57 579.64 1092.89 569.196L1031.4 529.786Z" fill="#8492FB"/>
<path d="M1051.73 665.075L1048.32 592.382L1041.77 591.407L1047.76 663.334L1051.73 665.075Z" fill="#D6DDE1"/>
<path d="M998.597 645.509L1005.56 580.406L998.319 577.83L994.558 643.281L998.597 645.509Z" fill="#D6DDE1"/>
<path d="M1118.1 671.271C1124.16 673.569 1126.94 674.474 1127.43 669.809C1127.43 669.809 1142.96 685.754 1142.33 689.236C1141.71 692.717 1139.13 691.881 1138.5 691.742C1133.56 690.558 1118.66 676.772 1118.1 671.271Z" fill="#292929"/>
<path d="M1128.89 657.485C1134.95 660.061 1141.64 663.891 1139.97 657.485C1139.97 657.485 1158.42 673.569 1154.31 677.538C1148.39 683.456 1128.89 660.757 1128.89 657.485Z" fill="#292929"/>
<path d="M1025.13 428.128C1034.67 426.457 1049.36 455.979 1061.34 485.224C1071.5 490.847 1082.59 494.597 1094.07 496.294C1100.68 496.472 1107.26 497.1 1113.78 498.174L1097.97 501.726C1097.97 501.726 1060.86 501.029 1052.01 491.142C1043.17 481.255 1035.99 435.439 1035.99 435.439L1025.13 428.128Z" fill="#F0C9BC"/>
<path d="M1035.02 435.3C1023.18 441.079 1029.66 476.59 1035.92 482.787C1040.52 487.243 1045.74 473.804 1051.8 470.602C1052.35 470.318 1052.99 470.254 1053.58 470.422C1054.18 470.59 1054.69 470.978 1055.01 471.507L1056.75 474.292L1059.88 473.247C1056.52 461.562 1051.23 450.523 1044.21 440.592C1040.8 435.857 1038.92 433.629 1035.02 435.3Z" fill="white"/>
<path d="M985.644 551.997C985.644 551.997 1005.77 572.12 1044.7 545.035C1061.62 533.337 1059.67 514.259 1057.65 494.623C1056.05 479.165 1051.89 464.081 1045.33 449.991C1045.33 449.991 1041.5 443.029 1037.46 435.091C1035.69 432.101 1033.2 429.599 1030.22 427.812C1027.24 426.025 1023.87 425.009 1020.39 424.855C1013.78 424.855 1011.13 419.564 1003.82 424.855C993.235 432.654 983.694 448.668 982.51 477.147C979.585 543.224 985.644 551.997 985.644 551.997Z" fill="white"/>
<path d="M1003.54 424.09C1001.17 431.052 1038.71 446.928 1034.04 432.027C1030.97 428.084 1027.11 424.834 1022.69 422.488C1012.53 419.285 1010.51 417.823 1003.54 424.09Z" fill="#F0C9BC"/>
<path d="M1028.26 383.635C1028.26 383.635 1041.56 421.165 1031.95 424.02C1019.63 427.71 1013.64 427.293 1007.93 424.856C1002.22 422.419 991.285 390.459 991.285 390.459L1028.26 383.635Z" fill="#F0C9BC"/>
<path d="M1015.31 400.834C1016.82 398.227 1019.01 396.083 1021.65 394.637C1024.07 393.21 1026.39 391.628 1028.61 389.902C1035.58 384.54 1035.09 355.575 1024.36 366.437C1021.49 369.433 1017.99 371.751 1014.11 373.22C1010.23 374.69 1006.07 375.275 1001.94 374.932C997.462 376.104 993.5 378.73 990.677 382.397C987.854 386.065 986.328 390.566 986.34 395.194C987.803 401.599 983.625 400.764 990.867 409.467C994.349 413.645 989.265 415.316 994.558 420.747C995.604 421.745 996.91 422.428 998.325 422.721C999.741 423.014 1001.21 422.904 1002.57 422.404C1003.92 421.903 1005.11 421.033 1006 419.891C1006.88 418.748 1007.43 417.381 1007.58 415.943C1006.81 411.417 1009.39 411.069 1013.64 403.758L1015.31 400.834Z" fill="#292929"/>
<path d="M1025.13 441.427C1022.27 476.242 1044.35 504.859 1040.94 554.156C1034.81 561.119 1004.73 572.329 980.839 563.974C973.875 479.793 982.58 434.464 1003.89 423.672C1001.66 428.964 1011.76 437.737 1025.13 441.427Z" fill="#FF715C"/>
<path d="M1070.47 540.648C1058.42 474.362 1043.72 433.629 1030.63 428.058C1035.78 431.401 1038.15 436.553 1036.41 438.155C1052.01 455.492 1053.89 498.871 1058.84 546.149L1070.47 540.648Z" fill="#FF715C"/>
<path d="M1072.55 524.982C1072.55 524.982 1029.94 534.451 1027.15 536.052C1024.36 537.654 1023.18 541.066 1030.49 545.383C1037.8 549.7 1064.2 565.505 1071.65 563.834C1079.1 562.163 1115.94 540.3 1115.94 540.3L1072.55 524.982Z" fill="#C9CFD1"/>
<path d="M998.318 456.676C998.318 456.676 1003.82 502.143 1009.53 514.537C1015.24 526.931 1054.73 529.368 1061.2 529.229C1066.81 529.58 1072.33 530.801 1077.57 532.85C1089.06 534.242 1085.65 526.583 1061.69 522.475C1054.73 521.291 1023.67 512.657 1022.62 509.037C1021.58 505.416 1015.66 460.297 1015.66 460.297C1013.57 446.789 1000.06 443.725 998.318 456.676Z" fill="#F0C9BC"/>
<path d="M1081.33 501.308L1122.69 488.009C1122.69 488.009 1139.69 486.686 1138.36 499.846C1137 510.982 1134.67 521.979 1131.4 532.71C1130.42 535.799 1128.79 538.64 1126.61 541.043C1124.44 543.445 1121.77 545.353 1118.8 546.636C1104.87 552.624 1076.11 564.531 1071.58 563.974C1069.48 563.884 1067.43 563.321 1065.58 562.326C1063.73 561.332 1062.13 559.931 1060.89 558.23C1059.66 556.529 1058.83 554.571 1058.46 552.503C1058.09 550.435 1058.2 548.31 1058.77 546.288C1060.65 532.78 1064.2 505.137 1081.33 501.308Z" fill="#D6DDE1"/>
<path d="M1002.85 441.497C987.455 445.744 987.594 488.287 993.792 496.712C995.533 499.149 1001.66 498.592 1004.59 496.712V496.294C1004.58 495.805 1004.69 495.32 1004.89 494.875C1005.1 494.429 1005.4 494.035 1005.77 493.718C1008.86 490.785 1012.44 488.427 1016.36 486.755C1016.7 486.674 1017.06 486.667 1017.41 486.735C1017.75 486.802 1018.08 486.943 1018.37 487.146C1018.66 487.35 1018.9 487.613 1019.09 487.918C1019.27 488.223 1019.38 488.562 1019.42 488.914L1019.84 491.49L1024.43 487.939C1024.43 484.806 1020.12 436.762 1002.85 441.497Z" fill="white"/>
<path d="M1097.76 525.26C1155.01 471.089 1216.15 452.986 1275.9 468.443C1356.13 495.25 1391.23 568.917 1392.48 657.346" stroke="#D6DDE1" stroke-width="0.3" stroke-miterlimit="10"/>
<path d="M1392.41 661.384C1387.05 764.852 1334.05 839.285 1188.09 882.734C1087.11 914.554 1003.54 952.084 943.999 997.621C799.706 1108.12 871.226 1274.19 893.162 1317.91C939.542 1409.68 1028.05 1490.59 1160.65 1560.22" stroke="#D6DDE1" stroke-width="0.3" stroke-miterlimit="10"/>
<path d="M1161.83 1560.5C1376.6 1678.24 1639.7 1767.44 1918.82 1819.73C2209.36 1875.95 2411 1872.5 2411 2044.5C2411 2216.5 2183.78 2177.34 1918.82 2215.5C1918.82 2215.5 1669.5 2228.5 1476.5 2303C1476.5 2303 1262.5 2377.5 1174.5 2548" stroke="#D6DDE1" stroke-width="0.3" stroke-miterlimit="10"/>
<path d="M1919.93 2215.15C1527.58 2242.51 1282.1 2355.38 1173.39 2549.02" stroke="#D6DDE1" stroke-miterlimit="10"/>
<path d="M1172.35 2551.25C1033.07 2778.51 1003.12 3069.91 1238.37 3510.24" stroke="#D6DDE1" stroke-width="0.3" stroke-miterlimit="10"/>
<path d="M1371.17 3690.44L1185.86 3683.27L1116.43 3690.44V3618.31L1124.99 3425.57L1116.43 3330.11L1213.71 3337.22L1371.17 3330.11L1364.28 3406.01L1366.02 3616.01L1371.17 3690.44Z" fill="white" stroke="#FF715C" stroke-width="3" stroke-miterlimit="10"/>
<path d="M1200.2 3386.37C1201.16 3386.79 1201.98 3387.46 1202.57 3388.32C1203.15 3389.21 1203.44 3390.26 1203.41 3391.32C1203.43 3392.35 1203.14 3393.37 1202.57 3394.24C1202 3395.12 1201.18 3395.8 1200.2 3396.19C1199.09 3396.7 1197.87 3396.93 1196.65 3396.89H1193.59V3401.14H1189.97V3385.89H1196.93C1198.04 3385.82 1199.16 3385.98 1200.2 3386.37V3386.37ZM1198.95 3393.34C1199.23 3393.1 1199.45 3392.8 1199.59 3392.46C1199.74 3392.12 1199.8 3391.75 1199.79 3391.39C1199.81 3391.01 1199.74 3390.63 1199.6 3390.28C1199.46 3389.93 1199.23 3389.62 1198.95 3389.37C1198.23 3388.84 1197.34 3388.59 1196.44 3388.67H1193.59V3394.03H1196.44C1197.34 3394.09 1198.24 3393.82 1198.95 3393.27V3393.34Z" fill="#FF715C"/>
<path d="M1218.8 3398.28V3401.13H1206.82V3385.89H1218.52V3388.74H1210.37V3392.15H1217.34V3394.87H1210.37V3398.49L1218.8 3398.28Z" fill="#FF715C"/>
<path d="M1233.7 3394.52C1234.21 3395.17 1234.48 3395.99 1234.47 3396.82C1234.46 3397.72 1234.11 3398.59 1233.49 3399.25C1232.79 3399.98 1231.93 3400.52 1230.98 3400.86C1229.89 3401.23 1228.73 3401.41 1227.57 3401.41C1226.49 3401.41 1225.41 3401.27 1224.37 3400.99C1223.33 3400.7 1222.33 3400.31 1221.37 3399.81L1222.49 3397.23C1223.19 3397.64 1223.94 3397.94 1224.72 3398.14C1225.51 3398.35 1226.33 3398.47 1227.15 3398.49C1228.07 3398.51 1228.97 3398.32 1229.8 3397.93C1230.1 3397.78 1230.36 3397.55 1230.54 3397.27C1230.73 3396.99 1230.83 3396.67 1230.85 3396.33C1230.86 3396.06 1230.8 3395.79 1230.66 3395.55C1230.52 3395.32 1230.32 3395.13 1230.08 3395.01C1229.48 3394.7 1228.8 3394.55 1228.13 3394.59H1224.37V3391.87H1227.85C1228.46 3391.91 1229.07 3391.77 1229.59 3391.46C1229.78 3391.3 1229.92 3391.11 1230.02 3390.9C1230.12 3390.68 1230.16 3390.44 1230.15 3390.2C1230.15 3389.92 1230.08 3389.63 1229.93 3389.39C1229.78 3389.14 1229.57 3388.94 1229.31 3388.81C1228.63 3388.45 1227.86 3388.28 1227.08 3388.32C1226.39 3388.22 1225.69 3388.22 1225 3388.32C1224.27 3388.47 1223.56 3388.73 1222.91 3389.09L1221.86 3386.3C1223.5 3385.46 1225.31 3385.03 1227.15 3385.05C1228.29 3385.05 1229.42 3385.24 1230.5 3385.61C1231.4 3385.92 1232.21 3386.44 1232.86 3387.14C1233.47 3387.78 1233.79 3388.63 1233.77 3389.51C1233.81 3390.2 1233.61 3390.89 1233.21 3391.46C1232.81 3392.06 1232.22 3392.52 1231.54 3392.78C1232.4 3393.16 1233.15 3393.76 1233.7 3394.52V3394.52Z" fill="#FF715C"/>
<path d="M1256.19 3386.44C1257.41 3387.11 1258.42 3388.1 1259.12 3389.3C1259.8 3390.56 1260.16 3391.97 1260.16 3393.41C1260.16 3394.84 1259.8 3396.25 1259.12 3397.51C1258.42 3398.71 1257.41 3399.7 1256.19 3400.37C1254.92 3401.07 1253.48 3401.43 1252.02 3401.41C1250.69 3401.43 1249.38 3401.14 1248.19 3400.58C1247.08 3400.05 1246.13 3399.26 1245.4 3398.28C1244.65 3397.28 1244.15 3396.11 1243.94 3394.87H1241.92V3401.13H1238.37V3385.89H1241.92V3391.94H1244.01C1244.22 3390.75 1244.72 3389.62 1245.47 3388.67C1246.19 3387.7 1247.15 3386.93 1248.26 3386.44C1249.43 3385.87 1250.71 3385.59 1252.02 3385.61C1253.46 3385.52 1254.9 3385.81 1256.19 3386.44ZM1254.24 3397.72C1254.95 3397.32 1255.5 3396.71 1255.85 3395.98C1256.26 3395.18 1256.47 3394.3 1256.47 3393.41C1256.47 3392.51 1256.26 3391.63 1255.85 3390.83C1255.5 3390.1 1254.95 3389.49 1254.24 3389.09C1253.55 3388.67 1252.76 3388.45 1251.95 3388.46C1251.11 3388.45 1250.29 3388.66 1249.58 3389.09C1248.89 3389.51 1248.34 3390.11 1247.98 3390.83C1247.57 3391.63 1247.35 3392.51 1247.35 3393.41C1247.35 3394.3 1247.57 3395.18 1247.98 3395.98C1248.34 3396.7 1248.89 3397.3 1249.58 3397.72C1250.29 3398.15 1251.11 3398.37 1251.95 3398.35C1252.76 3398.36 1253.55 3398.14 1254.24 3397.72V3397.72Z" fill="#FF715C"/>
<path d="M1278.06 3401.13V3391.87L1273.53 3399.81H1271.93L1267.41 3392.43V3401.48H1264.06V3385.89H1266.99L1272.77 3395.49L1278.48 3385.89H1281.4V3401.34L1278.06 3401.13Z" fill="#FF715C"/>
<path d="M1298.33 3398.28V3401.13H1286.35V3385.89H1298.05V3388.74H1289.9V3392.15H1296.86V3394.87H1289.9V3398.49L1298.33 3398.28Z" fill="#FF715C"/>
<path d="M1333.56 3457.32H1156.89V3471.6H1333.56V3457.32Z" fill="#F4F5F9"/>
<path d="M1333.56 3487.89H1156.89V3502.17H1333.56V3487.89Z" fill="#F4F5F9"/>
<path d="M1333.56 3520.13H1156.89V3534.4H1333.56V3520.13Z" fill="#F4F5F9"/>
<path d="M1333.56 3552.44H1156.89V3566.71H1333.56V3552.44Z" fill="#F4F5F9"/>
<path d="M1333.56 3616.36H1156.89V3630.63H1333.56V3616.36Z" fill="#F4F5F9"/>
<path d="M994.21 3414.92C998.017 3414.92 1001.1 3411.83 1001.1 3408.03C1001.1 3404.22 998.017 3401.13 994.21 3401.13C990.402 3401.13 987.315 3404.22 987.315 3408.03C987.315 3411.83 990.402 3414.92 994.21 3414.92Z" fill="#FF715C"/>
<path d="M1471.1 3651.94C1474.06 3651.94 1476.46 3649.54 1476.46 3646.58C1476.46 3643.61 1474.06 3641.21 1471.1 3641.21C1468.14 3641.21 1465.74 3643.61 1465.74 3646.58C1465.74 3649.54 1468.14 3651.94 1471.1 3651.94Z" fill="#FF715C"/>
</g>
<path d="M-151.6 22.2696L203.011 -66.8247L-213.696 -56.4681L-151.6 22.2696Z" fill="#FF715C"/>
<path d="M-47.2035 154.632L203.011 -66.8247L-108.758 76.5342L-47.2035 154.632Z" fill="#FF715C"/>
<path d="M-83.5513 30.6455L-108.758 76.5341L203.011 -66.8247L-151.6 22.2695L-83.5513 30.6455Z" fill="#EA5F50"/>
<path d="M252.928 -0.0544646L-54.859 92.9042L-131.429 8.47144L252.928 -0.0544646Z" fill="#EA5F50"/>
<path d="M-207.264 99.6908L-131.429 8.47152L-78.9615 7.28437L-89.9634 -41.438L-42.0015 -99.0377L252.928 -0.0543581L-207.264 99.6908Z" fill="#FF715C"/>
<path d="M-78.9617 7.28439L252.928 -0.0544871L-89.9635 -41.4379L-78.9617 7.28439Z" fill="#EA5F50"/>
<path d="M-40 33.2025L40.6997 2.56103L-37.8415 6.87872L-40 33.2025Z" fill="#FF715C"/>
<path d="M-36.3794 -10.8795L40.6996 2.56097L-34.4994 -34L-36.3794 -10.8795Z" fill="#FF715C"/>
<path d="M40.6996 2.5608L-36.3794 -10.8796L-30.8787 -3.01038L-37.8416 6.87848L40.6996 2.5608Z" fill="#EA5F50"/>
</g>
<defs>
<clipPath id="clip0">
<rect width="1920" height="3872" fill="white"/>
</clipPath>
<clipPath id="clip1">
<rect width="1065" height="3338" fill="white" transform="translate(855 364)"/>
</clipPath>
</defs>
</svg>
