<svg width="1903" height="3872" viewBox="0 0 1903 3872" fill="none" xmlns="http://www.w3.org/2000/svg">
<mask id="mask0" mask-type="alpha" maskUnits="userSpaceOnUse" x="0" y="0" width="1903" height="3872">
<rect x="0.5" y="0.5" width="1902" height="3871" stroke="black"/>
</mask>
<g mask="url(#mask0)">
</g>
<g clip-path="url(#clip0)">
<path d="M1061.29 623.477L1057.89 551.121L1051.45 550.151L1057.34 621.744L1061.29 623.477Z" fill="#D6DDE1"/>
<path opacity="0.51" d="M1141.24 681.486L1115.95 661.595C1130.85 655.496 1107.01 653.417 1107.01 643.783C1107.01 625.209 1072.37 610.101 1029.07 610.101C985.764 610.101 951.19 625.209 951.19 643.783C951.19 662.357 985.833 677.466 1029.07 677.466H1034.89L1128.01 694.169L1141.24 681.486Z" fill="#D6DDE1"/>
<path d="M1015.97 467.4C1015.07 444.875 979.32 436.004 960.544 464.35C956.456 470.657 951.259 474.677 957.218 517.439C963.177 560.2 960.821 573.784 985.625 582.378C1010.43 590.972 1039.18 603.794 1057.75 592.566C1065.51 587.853 1102.58 571.774 1098.91 557.289C1093.78 536.913 1029.07 525.409 1029.07 525.409L1015.97 467.4Z" fill="#D6DDE1"/>
<path d="M1114.57 657.991L1115.95 661.595C1116.65 663.349 1117.71 664.933 1119.07 666.238L1130.57 676.981C1137.5 683.912 1143.81 682.456 1136.6 672.823C1136.05 672.06 1122.05 656.051 1122.05 656.051L1114.57 657.991Z" fill="#FBD2BF"/>
<path d="M1034.89 526.726C1034.89 526.726 1016.6 519.795 1009.32 530.815C1002.05 541.834 1013.13 557.844 1037.66 572.814C1054.22 582.794 1079.23 570.874 1097.73 579.745C1103.07 609.269 1099.95 630.615 1114.43 660.625L1125.86 659.308C1115.75 622.437 1122.54 578.567 1114.01 566.299C1090.94 545.923 1065.79 536.221 1034.89 526.726Z" fill="#787FD4"/>
<path d="M1108.05 661.872C1108.05 661.872 1113.74 673.585 1114.98 675.11C1116.23 676.635 1128.84 690.912 1128.08 694.1C1127.32 697.288 1109.3 682.248 1106.11 677.258C1103.31 672.298 1100.83 667.158 1098.7 661.872H1108.05Z" fill="#FBD2BF"/>
<path d="M1018.33 534.557C1018.33 534.557 979.389 531.854 973.569 544.676C967.749 557.497 980.082 571.012 1005.58 580.299C1022.69 586.537 1046.53 586.675 1065.1 590.972C1073.37 620.135 1085.88 647.924 1102.23 673.446L1113.53 669.011C1099.67 634.358 1089.07 584.111 1079.51 573.715L1018.33 534.557Z" fill="#8492FB"/>
<path d="M1038.84 669.219L1035.44 596.794L1029 595.893L1034.89 667.417L1038.84 669.219Z" fill="#D6DDE1"/>
<path d="M986.041 649.744L992.969 584.943L985.764 582.378L982.022 647.457L986.041 649.744Z" fill="#D6DDE1"/>
<path d="M1104.94 675.318C1110.96 677.605 1113.74 678.575 1114.15 673.932C1114.15 673.932 1129.67 689.733 1129.05 693.268C1128.42 696.803 1125.86 695.902 1125.24 695.763C1120.32 694.516 1105.42 680.793 1104.94 675.318Z" fill="#292929"/>
<path d="M1115.95 661.595C1121.98 664.229 1128.63 668.04 1126.97 661.595C1126.97 661.595 1145.33 677.605 1141.24 681.625C1135.08 687.446 1115.4 664.852 1115.95 661.595Z" fill="#292929"/>
<path d="M1012.79 433.37C1022.21 431.638 1036.9 461.093 1048.81 490.132C1058.81 495.74 1069.72 499.541 1081.03 501.36C1087.6 501.503 1094.15 502.105 1100.64 503.162L1084.91 506.696C1084.91 506.696 1047.43 505.934 1038.84 496.162C1030.25 486.39 1022.9 440.717 1022.9 440.717L1012.79 433.37Z" fill="#F0C9BC"/>
<path d="M1022.28 440.44C1010.5 446.261 1016.94 481.607 1023.18 487.706C1027.75 492.142 1032.95 478.766 1038.98 475.578C1039.53 475.327 1040.15 475.279 1040.73 475.444C1041.32 475.609 1041.82 475.976 1042.16 476.479L1043.89 479.32L1047.01 478.211C1043.65 466.502 1038.38 455.426 1031.42 445.43C1028.03 440.994 1026.16 438.568 1022.28 440.44Z" fill="white"/>
<path d="M973.154 556.527C973.154 556.527 993.178 576.557 1031.91 549.596C1048.75 537.884 1046.81 518.963 1044.8 499.35C1043.18 483.959 1039.01 468.944 1032.46 454.924C1032.46 454.924 1028.65 447.994 1024.63 440.093C1022.87 437.13 1020.39 434.653 1017.43 432.887C1014.46 431.12 1011.11 430.119 1007.66 429.974C1000.73 429.974 998.443 424.707 991.168 429.974C980.637 437.737 971.145 453.677 969.967 482.092C967.126 547.864 973.154 556.527 973.154 556.527Z" fill="white"/>
<path d="M991.099 429.281C988.743 436.212 1026.09 452.083 1021.45 437.182C1018.35 433.243 1014.45 430.006 1010.01 427.687C999.898 424.499 998.027 422.767 991.099 429.281Z" fill="#F0C9BC"/>
<path d="M1015.56 389.084C1015.56 389.084 1028.79 426.371 1019.23 429.212C1006.97 432.885 1001.01 432.469 995.325 430.044C989.644 427.618 978.766 395.876 978.766 395.876L1015.56 389.084Z" fill="#F0C9BC"/>
<path d="M1002.67 406.203C1004.13 403.577 1006.32 401.434 1008.97 400.034C1011.38 398.582 1013.69 396.985 1015.9 395.252C1022.83 389.916 1022.42 361.084 1011.75 371.896C1008.88 374.888 1005.39 377.2 1001.52 378.663C997.642 380.127 993.491 380.703 989.366 380.351C984.9 381.521 980.95 384.145 978.14 387.81C975.329 391.474 973.819 395.97 973.846 400.589C975.371 406.896 971.213 406.133 978.419 414.45C981.883 418.678 976.826 420.272 982.091 425.747C983.124 426.746 984.419 427.433 985.825 427.728C987.232 428.023 988.693 427.914 990.04 427.414C991.387 426.914 992.566 426.043 993.44 424.902C994.313 423.761 994.847 422.396 994.979 420.965C994.286 416.391 996.849 416.113 1001.08 408.836L1002.67 406.203Z" fill="#292929"/>

<path id="firstWay" d="M1901.24 1820.39C1739 1788.96 1579.4 1745.12 1423.86 1689.26C1280.99 1637.01 1162.24 1579 1070.92 1516.76C956.594 1438.93 885.091 1354.24 858.346 1265.11C786.704 1026.21 987.981 953.235 1149.76 894.81C1204.71 874.988 1256.6 856.206 1289.86 833.197C1371.76 776.712 1389.84 675.803 1371.34 600.952C1363.84 568.452 1347.96 538.486 1325.27 514.043C1302.53 490.265 1272.23 475.146 1239.56 471.281C1150.25 460.469 1086.78 530.884 1086.16 531.577L1084.7 530.26C1085.33 529.567 1149.49 458.39 1239.84 469.271C1272.96 473.258 1303.66 488.674 1326.65 512.864C1349.5 537.518 1365.5 567.718 1373.07 600.467C1391.71 676.011 1373.49 777.752 1290.76 834.86C1257.3 857.939 1205.26 876.79 1150.25 896.681C989.436 954.967 789.129 1027.46 860.355 1264.56C886.961 1353.27 958.257 1437.82 1072.16 1515.17C1163.34 1577.54 1281.96 1635.21 1424.69 1687.39C1580.12 1743.21 1739.6 1787.03 1901.73 1818.45L1901.24 1820.39Z" fill="#D6DDE1"/>

<path d="M1012.79 446.539C1009.94 481.192 1031.84 509.676 1028.51 558.814C1022.42 565.745 992.485 576.834 968.719 568.517C961.444 484.726 970.452 439.608 991.653 428.865C989.09 434.133 998.928 442.865 1012.79 446.539Z" fill="#FF715C"/>
<path d="M1057.54 545.369C1045.56 479.32 1030.94 439.054 1017.91 433.301C1023.04 436.559 1025.33 441.757 1023.66 443.281C1039.18 460.608 1041.05 503.716 1045.97 550.844L1057.54 545.369Z" fill="#FF715C"/>
<path d="M1059.62 529.706C1059.62 529.706 1017.22 539.201 1014.45 540.587C1011.68 541.973 1010.5 545.646 1017.7 549.943C1024.91 554.24 1051.24 569.903 1058.72 568.24C1066.21 566.577 1102.86 545.022 1102.86 545.022L1059.62 529.706Z" fill="#C9CFD1"/>
<path d="M985.764 461.717C985.764 461.717 991.237 506.973 996.919 519.379C1002.6 531.785 1041.89 534.141 1048.33 533.933C1053.89 534.325 1059.36 535.564 1064.54 537.607C1075.97 538.923 1072.65 531.3 1048.81 527.28C1041.89 526.033 1010.98 517.439 1009.94 513.835C1008.91 510.231 1003.02 465.32 1003.02 465.32C1000.94 451.944 987.496 448.826 985.764 461.717Z" fill="#F0C9BC"/>
<path d="M1068.21 505.934L1109.79 492.904C1109.79 492.904 1126.69 491.657 1125.38 504.686C1124.02 515.771 1121.7 526.717 1118.45 537.399C1117.46 540.468 1115.83 543.293 1113.67 545.683C1111.51 548.073 1108.86 549.975 1105.91 551.26C1092.05 557.151 1063.43 569.002 1058.93 568.448C1056.85 568.356 1054.82 567.797 1052.98 566.811C1051.15 565.825 1049.56 564.438 1048.33 562.753C1047.11 561.068 1046.28 559.129 1045.91 557.079C1045.53 555.029 1045.63 552.922 1046.18 550.913C1047.77 537.468 1051.24 509.954 1068.21 505.934Z" fill="#D6DDE1"/>
<path d="M990.268 446.608C974.955 450.835 975.094 493.181 981.26 501.637C982.993 503.993 989.09 503.439 992 501.637V501.013C991.975 500.512 992.069 500.013 992.274 499.555C992.478 499.098 992.788 498.695 993.178 498.379C996.243 495.454 999.81 493.106 1003.71 491.449C1004.05 491.356 1004.4 491.339 1004.75 491.397C1005.09 491.455 1005.42 491.587 1005.71 491.785C1006 491.983 1006.25 492.241 1006.43 492.542C1006.61 492.843 1006.72 493.179 1006.76 493.528L1007.1 496.092L1011.47 492.973C1011.61 489.785 1007.45 441.895 990.268 446.608Z" fill="white"/>
<path d="M1359.7 1662.93L1048.26 1589.88L1024.36 1478.99L1359.7 1662.93Z" fill="#EA5F50"/>
<path d="M913.567 1519.88L1024.36 1478.99L1070.08 1504.15L1084.91 1456.67L1154.82 1430.82L1359.7 1662.93L913.567 1519.88Z" fill="#FF715C"/>
<path d="M1070.09 1504.15L1359.7 1662.93L1084.91 1456.67L1070.09 1504.15Z" fill="#EA5F50"/>

<path d="M1222.52 3462.8C1157.82 3366.95 1109.29 3261.12 1078.88 3149.54C1031.01 2973.68 1042.55 2786.93 1111.73 2618.31C1148.86 2526.34 1213.72 2447.75 1303.79 2384.68C1376.12 2334.3 1465.09 2293.68 1568.05 2264.02C1676.96 2233.09 1789.26 2215.65 1902.42 2212.11V2214.05C1789.43 2217.63 1677.3 2235.04 1568.53 2265.89C1465.78 2295.55 1377.09 2336.1 1305.24 2386.34C1215.17 2449.14 1150.6 2527.45 1113.67 2619.07C1044.63 2787.29 1033.11 2973.61 1080.89 3149.06C1111.19 3260.41 1159.57 3366.03 1224.11 3461.7L1222.52 3462.8Z" fill="#D6DDE1"/>
<path d="M1268.59 2398.06L1081.79 2710.42L1367.67 2409.77L1268.59 2398.06Z" fill="#FF715C"/>
<path d="M1101.96 2378.44L1081.79 2710.42L1200.2 2390.02L1101.96 2378.44Z" fill="#FF715C"/>
<path d="M1356.65 3680.5L1172.28 3673.36L1103.27 3680.5V3608.76L1111.8 3416.92L1103.27 3321.84L1200 3328.91L1356.65 3321.84L1349.86 3397.38L1351.6 3606.41L1356.65 3680.5Z" fill="white" stroke="#FF715C" stroke-width="3" stroke-miterlimit="10"/>
<path d="M1186.62 3377.84C1187.58 3378.25 1188.4 3378.92 1188.98 3379.78C1189.55 3380.67 1189.84 3381.7 1189.81 3382.76C1189.85 3383.8 1189.56 3384.84 1188.99 3385.72C1188.42 3386.6 1187.6 3387.28 1186.62 3387.68C1185.5 3388.12 1184.3 3388.33 1183.09 3388.3H1180.04V3392.53H1176.44V3377.21H1183.37C1184.48 3377.22 1185.59 3377.43 1186.62 3377.84V3377.84ZM1185.38 3384.77C1185.66 3384.53 1185.88 3384.23 1186.02 3383.89C1186.17 3383.56 1186.23 3383.19 1186.21 3382.83C1186.23 3382.45 1186.16 3382.08 1186.02 3381.73C1185.87 3381.38 1185.66 3381.07 1185.38 3380.82C1184.64 3380.32 1183.77 3380.08 1182.88 3380.12H1180.04V3385.46H1182.88C1183.78 3385.52 1184.67 3385.25 1185.38 3384.7V3384.77Z" fill="#FF715C"/>
<path d="M1205.12 3389.69V3392.53H1192.93V3377.21H1204.57V3380.05H1196.74V3383.38H1203.67V3386.15H1196.74V3389.69H1205.12Z" fill="#FF715C"/>
<path d="M1219.95 3385.94C1220.42 3386.61 1220.66 3387.42 1220.64 3388.23C1220.68 3389.13 1220.35 3390 1219.74 3390.66C1219.07 3391.4 1218.21 3391.95 1217.25 3392.25C1216.16 3392.62 1215.01 3392.81 1213.85 3392.81C1212.78 3392.81 1211.71 3392.67 1210.67 3392.39C1209.62 3392.16 1208.61 3391.76 1207.69 3391.21L1208.8 3388.65C1209.49 3389.07 1210.23 3389.4 1211.01 3389.62C1211.82 3389.72 1212.63 3389.72 1213.44 3389.62C1214.33 3389.67 1215.21 3389.48 1216 3389.06C1216.31 3388.93 1216.58 3388.71 1216.76 3388.42C1216.95 3388.14 1217.04 3387.81 1217.04 3387.47C1217.06 3387.21 1217 3386.95 1216.88 3386.72C1216.75 3386.48 1216.57 3386.29 1216.35 3386.15C1215.75 3385.84 1215.08 3385.7 1214.41 3385.74H1210.67V3383.03H1214.13C1214.74 3383.07 1215.34 3382.93 1215.86 3382.62C1216.05 3382.47 1216.19 3382.28 1216.29 3382.06C1216.38 3381.84 1216.43 3381.61 1216.42 3381.37C1216.42 3381.09 1216.34 3380.81 1216.19 3380.56C1216.04 3380.32 1215.84 3380.12 1215.59 3379.98C1214.9 3379.63 1214.14 3379.46 1213.37 3379.5C1212.68 3379.39 1211.98 3379.39 1211.29 3379.5C1210.57 3379.69 1209.87 3379.97 1209.21 3380.33L1208.17 3377.56C1209.8 3376.72 1211.61 3376.29 1213.44 3376.31C1214.54 3376.29 1215.64 3376.45 1216.7 3376.8C1217.63 3377.11 1218.46 3377.66 1219.12 3378.39C1219.41 3378.69 1219.65 3379.05 1219.8 3379.44C1219.95 3379.84 1220.03 3380.26 1220.02 3380.68C1220.02 3381.38 1219.83 3382.08 1219.47 3382.69C1219.03 3383.25 1218.45 3383.7 1217.8 3384C1218.71 3384.41 1219.46 3385.09 1219.95 3385.94V3385.94Z" fill="#FF715C"/>
<path d="M1242.33 3377.97C1243.52 3378.66 1244.53 3379.64 1245.24 3380.82C1245.92 3382.06 1246.28 3383.45 1246.28 3384.87C1246.28 3386.29 1245.92 3387.68 1245.24 3388.92C1244.53 3390.1 1243.52 3391.08 1242.33 3391.77C1241.06 3392.47 1239.63 3392.83 1238.17 3392.81C1236.86 3392.82 1235.55 3392.54 1234.36 3391.97C1233.26 3391.43 1232.29 3390.65 1231.52 3389.69C1230.81 3388.67 1230.34 3387.51 1230.14 3386.29H1228.13V3392.53H1224.59V3377.21H1228.13V3383.24H1230.21C1230.39 3382.02 1230.89 3380.87 1231.66 3379.91C1232.39 3378.96 1233.34 3378.2 1234.43 3377.7C1235.61 3377.18 1236.89 3376.92 1238.17 3376.93C1239.63 3376.92 1241.06 3377.27 1242.33 3377.97V3377.97ZM1240.46 3389.06C1241.17 3388.68 1241.74 3388.07 1242.05 3387.33C1242.49 3386.55 1242.7 3385.66 1242.68 3384.77C1242.69 3383.87 1242.48 3382.99 1242.05 3382.2C1241.7 3381.49 1241.14 3380.88 1240.46 3380.47C1239.77 3380.05 1238.98 3379.84 1238.17 3379.85C1237.35 3379.83 1236.53 3380.05 1235.82 3380.47C1235.26 3380.92 1234.81 3381.49 1234.5 3382.13C1234.08 3382.92 1233.86 3383.8 1233.88 3384.7C1233.85 3385.59 1234.07 3386.48 1234.5 3387.26C1234.84 3387.99 1235.4 3388.6 1236.1 3388.99C1236.81 3389.42 1237.62 3389.63 1238.45 3389.62C1239.16 3389.6 1239.84 3389.41 1240.46 3389.06V3389.06Z" fill="#FF715C"/>
<path d="M1264.09 3392.53V3383.38L1259.58 3390.93H1257.99L1253.49 3383.52V3392.53H1250.09V3377.21H1253.07L1258.82 3386.71L1264.5 3377.21H1267.41V3392.53H1264.09Z" fill="#FF715C"/>
<path d="M1284.25 3389.69V3392.53H1272.33V3377.21H1283.97V3380.05H1276.07V3383.38H1283V3386.15H1276.07V3389.69H1284.25Z" fill="#FF715C"/>
<path d="M1319.31 3448.53H1143.53V3462.74H1319.31V3448.53Z" fill="#F4F5F9"/>
<path d="M1319.31 3478.88H1143.53V3493.09H1319.31V3478.88Z" fill="#F4F5F9"/>
<path d="M1319.31 3511.04H1143.53V3525.25H1319.31V3511.04Z" fill="#F4F5F9"/>
<path d="M1319.31 3543.2H1143.53V3557.41H1319.31V3543.2Z" fill="#F4F5F9"/>
<path d="M1319.31 3606.75H1143.53V3620.96H1319.31V3606.75Z" fill="#F4F5F9"/>
<path d="M981.607 3406.32C985.395 3406.32 988.466 3403.25 988.466 3399.46C988.466 3395.67 985.395 3392.6 981.607 3392.6C977.818 3392.6 974.747 3395.67 974.747 3399.46C974.747 3403.25 977.818 3406.32 981.607 3406.32Z" fill="#FF715C"/>
<path d="M1456.15 3642.17C1459.09 3642.17 1461.48 3639.78 1461.48 3636.83C1461.48 3633.88 1459.09 3631.5 1456.15 3631.5C1453.2 3631.5 1450.81 3633.88 1450.81 3636.83C1450.81 3639.78 1453.2 3642.17 1456.15 3642.17Z" fill="#FF715C"/>

<g id="small-plane">
  <path d="M1342.73 623.546L1373.21 703.872L1368.92 625.695L1342.73 623.546Z" fill="#FF715C"/>
  <path d="M1386.59 627.15L1373.21 703.872L1409.52 629.09L1386.59 627.15Z" fill="#FF715C"/>
  <path d="M1373.21 703.872L1386.59 627.15L1378.69 632.694L1368.92 625.695L1373.21 703.872Z" fill="#EA5F50"/>
</g>
  
<path d="M1214.75 2440.06L1200.2 2390.02L1081.79 2710.42L1268.59 2398.06L1214.75 2440.06Z" fill="#EA5F50"/>
</g>
<defs>
<clipPath id="clip0">
<rect width="1111.7" height="3692" fill="white" transform="translate(791)"/>
</clipPath>
</defs>
</svg>
