<?xml version="1.0" encoding="utf-8"?>
<!-- Generator: Adobe Illustrator 23.0.0, SVG Export Plug-In . SVG Version: 6.00 Build 0)  -->
<svg version="1.1" id="Слой_1" xmlns="http://www.w3.org/2000/svg" xmlns:xlink="http://www.w3.org/1999/xlink" x="0px" y="0px"
	 width="187.487px" height="222.368px" viewBox="0 0 187.487 222.368" style="enable-background:new 0 0 187.487 222.368;"
	 xml:space="preserve">
<style type="text/css">
	.st0{display:none;}
	.st1{display:inline;}
	.st2{display:inline;fill:#F3F4F7;}
	.st3{opacity:0.51;fill:#D6DDE1;}
</style>
<g class="st0">
	<g id="_x38_5946s.tif" class="st1">
		
			<image style="overflow:visible;" width="3878" height="1990" id="Layer_0_1_" xlink:href="58574F0D181FA3B3.png"  transform="matrix(0.25 0 0 0.25 -484.5413 70.406)">
		</image>
	</g>
	<rect x="-38.173" y="69.623" class="st2" width="524.971" height="498.283"/>
</g>
<g>
	<path class="st3" d="M187.487,122.791c-0.013-18.054-12.526-38.538-32.363-52.187c-9.273-6.38-19.415-10.792-27.587-7.918
		c-20.646,7.261-64.414,32.158-66.239,73.52c-1.826,41.362-32.848,18.045-41.687,25.675c-8.839,7.63-10.559,48.448,31.718,53.343
		s79.522,20.52,86.791-19.34s24.197-37.518,41.226-51.949C185.529,138.696,187.493,130.766,187.487,122.791z"/>
	<path class="st3" d="M15.423,6.477c0,0-21.388-6.331-13.79,10.974s19.838,10.974,10.974,28.28s2.888,27.785,17.905,14.525
		s1.511-17.338,2.777-31.338c1.266-14,31.624-10.774,24.887-23.572S26.833,6.786,15.423,6.477"/>
</g>
</svg>
