<svg id="Слой_1" data-name="Слой 1" xmlns="http://www.w3.org/2000/svg" viewBox="0 0 42.39 57.51">
  <defs>
    <style>
      .cls-1 {
        fill: #dc7769;
      }

      .cls-2 {
        fill: #fff;
      }

      .cls-3 {
        fill: #f4f6fa;
      }
    </style>
  </defs>
  <title>4</title>
  <g>
    <polygon class="cls-1" points="42.39 57.51 11.55 56.37 0 57.51 0 46.01 1.42 15.24 0 0 16.19 1.14 42.39 0 41.25 12.12 41.54 45.63 42.39 57.51"/>
    <polygon class="cls-2" points="39.41 54.59 12.81 53.56 2.84 54.59 2.84 44.24 4.07 16.56 2.84 2.84 16.81 3.87 39.41 2.84 38.43 13.74 38.68 43.9 39.41 54.59"/>
    <g>
      <path class="cls-1" d="M14.88,10.92a.83.83,0,0,1,.33.28.77.77,0,0,1,.12.43.8.8,0,0,1-.12.43.73.73,0,0,1-.33.27,1.19,1.19,0,0,1-.51.1h-.45V13h-.51V10.83h1A1.36,1.36,0,0,1,14.88,10.92Zm-.19,1a.34.34,0,0,0,.12-.28.37.37,0,0,0-.12-.29.58.58,0,0,0-.35-.1h-.42V12h.42A.52.52,0,0,0,14.69,11.91Z"/>
      <path class="cls-1" d="M17.54,12.63V13H15.83V10.83H17.5v.41H16.34v.48h1v.4h-1v.51Z"/>
      <path class="cls-1" d="M19.68,12.09a.57.57,0,0,1,.11.33.5.5,0,0,1-.14.35.74.74,0,0,1-.35.23,1.64,1.64,0,0,1-.5.08,1.88,1.88,0,0,1-.46-.06,1.28,1.28,0,0,1-.42-.17l.15-.37a1.22,1.22,0,0,0,.33.14,1.32,1.32,0,0,0,.34,0,.86.86,0,0,0,.38-.08.25.25,0,0,0,.15-.23.23.23,0,0,0-.1-.19.6.6,0,0,0-.29-.06h-.54v-.39h.51a.43.43,0,0,0,.24-.06.2.2,0,0,0,.09-.18.24.24,0,0,0-.13-.2.61.61,0,0,0-.32-.07,1,1,0,0,0-.3,0,1.25,1.25,0,0,0-.3.12L18,11a1.64,1.64,0,0,1,.76-.18,1.51,1.51,0,0,1,.48.07.86.86,0,0,1,.35.23.51.51,0,0,1,.13.33.5.5,0,0,1-.09.29.62.62,0,0,1-.23.19A.64.64,0,0,1,19.68,12.09Z"/>
      <path class="cls-1" d="M22.91,10.94a1,1,0,0,1,.42.41,1.22,1.22,0,0,1,0,1.17,1,1,0,0,1-.42.41,1.21,1.21,0,0,1-.6.15,1.26,1.26,0,0,1-.55-.12,1.11,1.11,0,0,1-.61-.82h-.29V13h-.51V10.83h.51v.87h.3a1,1,0,0,1,.21-.48,1.13,1.13,0,0,1,.4-.32,1.37,1.37,0,0,1,.54-.11A1.21,1.21,0,0,1,22.91,10.94Zm-.27,1.61a.58.58,0,0,0,.24-.25.84.84,0,0,0,.08-.37.87.87,0,0,0-.08-.37.72.72,0,0,0-.24-.25.65.65,0,0,0-.66,0,.72.72,0,0,0-.24.25.75.75,0,0,0-.08.37.72.72,0,0,0,.08.37.58.58,0,0,0,.24.25.65.65,0,0,0,.66,0Z"/>
      <path class="cls-1" d="M26.06,13V11.72l-.65,1.09h-.23l-.65-1.07V13H24V10.83h.42l.83,1.37.82-1.37h.42V13Z"/>
      <path class="cls-1" d="M29,12.63V13H27.25V10.83h1.67v.41H27.76v.48h1v.4h-1v.51Z"/>
    </g>
    <rect class="cls-3" x="8.65" y="21.12" width="25.37" height="2.05"/>
    <rect class="cls-3" x="8.65" y="25.5" width="25.37" height="2.05"/>
    <rect class="cls-3" x="8.65" y="30.14" width="25.37" height="2.05"/>
    <rect class="cls-3" x="8.65" y="34.78" width="25.37" height="2.05"/>
    <rect class="cls-3" x="8.65" y="43.95" width="25.37" height="2.05"/>
  </g>
</svg>
