<svg id="Слой_1" data-name="Слой 1" xmlns="http://www.w3.org/2000/svg" viewBox="0 0 27.52 47.1">
  <defs>
    <style>
      .cls-1, .cls-2 {
        fill: #d6dce0;
      }

      .cls-2 {
        opacity: 0.51;
      }

      .cls-3 {
        fill: #f3d0c0;
      }

      .cls-4 {
        fill: #777ebb;
      }

      .cls-5 {
        fill: #828dc5;
      }

      .cls-6 {
        fill: #292929;
      }

      .cls-7 {
        fill: #edc8bc;
      }

      .cls-8 {
        fill: #fff;
      }

      .cls-9 {
        fill: #e9c2b3;
      }

      .cls-10 {
        fill: #dc7769;
      }

      .cls-11 {
        fill: #c9ced0;
      }
    </style>
  </defs>
  <title>7</title>
  <g>
    <polygon class="cls-1" points="15.89 36.65 15.4 26.21 14.47 26.07 15.32 36.39 15.89 36.65"/>
    <path class="cls-2" d="M27.43,45l-3.64-2.86c2.14-.89-1.3-1.19-1.3-2.57,0-2.69-5-4.86-11.25-4.86S0,36.89,0,39.58s5,4.86,11.24,4.86l.84,0,13.44,2.41Z"/>
    <path class="cls-1" d="M9.35,14.12c-.13-3.24-5.29-4.52-8-.44-.6.91-1.35,1.5-.48,7.67S1.41,29.47,5,30.71s7.73,3.09,10.41,1.48c1.13-.68,6.47-3,5.94-5.1-.74-2.94-10.08-4.59-10.08-4.59Z"/>
    <path class="cls-3" d="M23.59,41.62l.2.53a1.66,1.66,0,0,0,.45.66l1.68,1.55c1,1,1.91.8.88-.6l-2.11-2.41Z"/>
    <path class="cls-4" d="M12.08,22.66s-2.64-1-3.69.6.55,3.9,4.09,6c2.39,1.45,6.05-.27,8.67,1,.77,4.27.32,7.35,2.41,11.67l1.66-.18c-1.47-5.33-.48-11.65-1.72-13.43C20.17,25.46,16.54,24.05,12.08,22.66Z"/>
    <path class="cls-3" d="M22.64,42.19s.83,1.69,1,1.91,2,2.27,1.88,2.73-2.71-1.7-3.17-2.43a18.09,18.09,0,0,1-1.06-2.21Z"/>
    <path class="cls-5" d="M9.69,23.81s-5.62-.39-6.46,1.47.95,3.8,4.62,5.14c2.47.9,5.92.92,8.59,1.54A44.57,44.57,0,0,0,21.8,43.85l1.63-.63c-2-5-3.52-12.25-4.91-13.75Z"/>
    <polygon class="cls-1" points="12.65 43.24 12.16 32.8 11.23 32.66 12.09 42.99 12.65 43.24"/>
    <polygon class="cls-1" points="5.03 40.43 6.03 31.08 4.99 30.71 4.45 40.11 5.03 40.43"/>
    <path class="cls-6" d="M22.19,44.13c.87.33,1.27.46,1.34-.21,0,0,2.23,2.29,2.14,2.79s-.46.38-.55.36C24.41,46.9,22.27,44.92,22.19,44.13Z"/>
    <path class="cls-6" d="M23.79,42.15c.86.37,1.82.92,1.58,0,0,0,2.65,2.31,2.06,2.88C26.54,45.88,23.7,42.62,23.79,42.15Z"/>
    <path class="cls-7" d="M8.84,9.21c1.37-.24,3.48,4,5.2,8.2A13.9,13.9,0,0,0,18.69,19a20.84,20.84,0,0,1,2.83.27l-2.27.51s-5.33-.1-6.6-1.52-2.3-8-2.3-8Z"/>
    <path class="cls-8" d="M10.27,10.24c-1.71.83-.78,5.93.12,6.82.66.64,1.41-1.29,2.28-1.75a.35.35,0,0,1,.46.13l.25.4.45-.15A15.59,15.59,0,0,0,11.58,11C11.09,10.32,10.82,10,10.27,10.24Z"/>
    <path class="cls-8" d="M3.17,27s2.89,2.89,8.48-1c2.43-1.68,2.15-4.42,1.86-7.24a20.09,20.09,0,0,0-1.78-6.41s-.55-1-1.13-2.14A3,3,0,0,0,8.15,8.74c-1,0-1.33-.76-2.38,0-1.52,1.12-2.89,3.42-3.06,7.51C2.3,25.74,3.17,27,3.17,27Z"/>
    <path class="cls-7" d="M5.76,8.63c-.34,1,5.05,3.28,4.38,1.14A5.1,5.1,0,0,0,8.49,8.4C7,7.94,6.76,7.73,5.76,8.63Z"/>
    <path class="cls-7" d="M9.29,2.82s1.91,5.39.53,5.8c-1.77.53-2.63.47-3.45.12S4,3.8,4,3.8Z"/>
    <path class="cls-6" d="M7.43,5.29a2.36,2.36,0,0,1,.91-.89,9.37,9.37,0,0,0,1-.68c1-.77.93-4.93-.61-3.37A4,4,0,0,1,5.51,1.57,3,3,0,0,0,3.27,4.48c.21.92-.39.8.65,2.05.5.6-.22.84.53,1.62a1.11,1.11,0,0,0,1.87-.69c-.11-.65.26-.7.87-1.75Z"/>
    <path class="cls-9" d="M8.56,10.42"/>
    <path class="cls-10" d="M8.84,11.12c-.41,5,2.76,9.11,2.27,16.19-.88,1-5.2,2.61-8.63,1.41-1-12.09.25-18.6,3.31-20.15C5.48,9.33,6.92,10.59,8.84,11.12Z"/>
    <path class="cls-10" d="M15.35,25.37C13.62,15.85,11.51,10,9.63,9.2c.74.48,1.08,1.22.83,1.45,2.24,2.49,2.51,8.72,3.22,15.51Z"/>
    <path class="cls-11" d="M15.65,23.12s-6.12,1.36-6.52,1.59-.57.72.48,1.34,4.84,2.89,5.91,2.65,6.36-3.38,6.36-3.38Z"/>
    <path class="cls-7" d="M5,13.31s.79,6.53,1.61,8.31,6.49,2.13,7.42,2.11a7.78,7.78,0,0,1,2.35.52c1.65.2,1.16-.9-2.28-1.49-1-.17-5.46-1.41-5.61-1.93s-1-7-1-7C7.18,11.89,5.24,11.45,5,13.31Z"/>
    <path class="cls-1" d="M16.91,19.72l5.94-1.91s2.44-.19,2.25,1.7a27.7,27.7,0,0,1-1,4.72,3.25,3.25,0,0,1-1.81,2c-2,.86-6.13,2.57-6.78,2.49a2,2,0,0,1-1.84-2.54C13.94,24.24,14.45,20.27,16.91,19.72Z"/>
    <path class="cls-8" d="M5.65,11.13c-2.22.61-2.2,6.72-1.31,7.93.25.35,1.13.27,1.55,0V19a.48.48,0,0,1,.17-.37,5.13,5.13,0,0,1,1.52-1,.36.36,0,0,1,.44.31l.06.37.62-.45C8.72,17.35,8.12,10.45,5.65,11.13Z"/>
  </g>
</svg>
