<svg id="Слой_1" data-name="Слой 1" xmlns="http://www.w3.org/2000/svg" viewBox="0 0 140.03 114.61">
  <defs>
    <style>
      .cls-1, .cls-5 {
        fill: #d6dce0;
      }

      .cls-2 {
        fill: #828dc5;
      }

      .cls-3 {
        fill: #fff;
      }

      .cls-4 {
        fill: #dc7769;
      }

      .cls-5 {
        opacity: 0.51;
      }
    </style>
  </defs>
  <title>9</title>
  <g>
    <path class="cls-1" d="M110.43,36.62,110,22.69C115,24.58,120.32,28,121.14,33.77l0,16.12C120.83,46.36,117.72,39.6,110.43,36.62Z"/>
    <path class="cls-2" d="M113.2,34.86l-.33-6.93c3.66,1.37,7.52,5.58,8.11,9.79l0,6.77C120.76,41.93,118.56,38,113.2,34.86Z"/>
    <path class="cls-3" d="M106.18,45.94l.11,16.3c7.45-1.06,13.44-2.76,15.11-10.63L121.14,34C120.36,41,115.25,45.19,106.18,45.94Z"/>
    <path class="cls-4" d="M109.81,49l.06,8.79c3.2-.37,7.95-2.63,9.36-6.67l-.12-6.89C116.76,47.06,113.55,48.11,109.81,49Z"/>
    <path class="cls-3" d="M84.45,88.58l.26,26c27.23,0,49.15-3.82,55.32-16.4V66.27C137.14,77.48,118.15,87.38,84.45,88.58Z"/>
    <path class="cls-1" d="M.33,87.72h0c.48-6.07,1.29-12,5.91-16.67V46.94A38.12,38.12,0,0,0,0,68.64Z"/>
    <path class="cls-3" d="M25.72,110.42C12.86,106.52,1.64,98.24.3,87.59L0,67.67c1.12,9.78,10.44,20,25.45,25.11Z"/>
    <path class="cls-5" d="M12.86,100.63A21.52,21.52,0,0,1,2.73,88.55l-.12-7.64c2.71,5.55,6.08,8,10.14,10.38Z"/>
    <path class="cls-1" d="M63.38,5.64a23.14,23.14,0,0,0-11.09,2.9l0-5.64C56.26,1.17,60,0,63.33,0Z"/>
    <path class="cls-5" d="M124.72,106.33V86c-.82.29-1.67.57-2.54.83V107.1C123.05,106.86,123.9,106.6,124.72,106.33Z"/>
    <path class="cls-5" d="M119.9,107.66V87.89c-.83.22-1.67.42-2.54.62v19.73C118.23,108.05,119.07,107.86,119.9,107.66Z"/>
    <path class="cls-5" d="M115.14,108.82V89.36l-2.53.46v19.45C113.47,109.13,114.31,109,115.14,108.82Z"/>
    <path class="cls-5" d="M110.33,109.71V90.37c-.84.12-1.68.24-2.54.34v19.34Z"/>
    <path class="cls-5" d="M105.12,110.25v-19l-2.53.24v19Z"/>
    <path class="cls-5" d="M100.3,110.87V91.94l-2.53.16V111Z"/>
    <path class="cls-5" d="M95.29,111.17V92.38l-2.53.1v18.79Z"/>
    <path class="cls-5" d="M90.47,111.38V92.32l-2.53,0v19.07Z"/>
    <path class="cls-5" d="M132.29,82.75l.14,3.33-3.66.49c.31,2.51,4.21,3.74,5.94,1.73A3.25,3.25,0,0,0,132.29,82.75Z"/>
    <path class="cls-5" d="M132.29,94.3l.14,3.33-3.66.49c.31,2.51,4.21,3.74,5.94,1.74A3.25,3.25,0,0,0,132.29,94.3Z"/>
    <path class="cls-5" d="M18.79,96.12l.14,3.33-3.66.5c.3,2.5,4.21,3.74,5.94,1.73A3.25,3.25,0,0,0,18.79,96.12Z"/>
  </g>
</svg>
